<?plantuml 1.2026.2?><svg xmlns="http://www.w3.org/2000/svg" xmlns:xlink="http://www.w3.org/1999/xlink" contentStyleType="text/css" data-diagram-type="DESCRIPTION" height="1026px" preserveAspectRatio="none" style="width:1465px;height:1026px;background:#FFFFFF;" version="1.1" viewBox="0 0 1465 1026" width="1465px" zoomAndPan="magnify"><title>&#1050;&#1086;&#1085;&#1090;&#1077;&#1082;&#1089;&#1090;&#1085;&#1072;&#1103; &#1089;&#1093;&#1077;&#1084;&#1072; CMS-first &#1089;&#1080;&#1089;&#1090;&#1077;&#1084;&#1099;
&#1058;&#1077;&#1082;&#1091;&#1097;&#1080;&#1081; &#1082;&#1086;&#1085;&#1090;&#1091;&#1088; Strapi + Astro</title><defs/><g><rect fill="#F9F9F9" height="26.6406" rx="2.5" ry="2.5" style="stroke:#DDDDDD;stroke-width:3;" width="1454.9379" x="5" y="5"/><text fill="#000000" font-family="monospace" font-size="10" lengthAdjust="spacing" textLength="355.21" x="10" y="20">Please&#160;use&#160;'!option&#160;handwritten&#160;true'&#160;to&#160;enable&#160;handwritten</text><g class="title" data-source-line="2"><text fill="#000000" font-family="Times New Roman" font-size="14" font-weight="bold" lengthAdjust="spacing" textLength="243.2705" x="596.8337" y="59.7109">&#1050;&#1086;&#1085;&#1090;&#1077;&#1082;&#1089;&#1090;&#1085;&#1072;&#1103; &#1089;&#1093;&#1077;&#1084;&#1072; CMS-first &#1089;&#1080;&#1089;&#1090;&#1077;&#1084;&#1099;</text><text fill="#000000" font-family="Times New Roman" font-size="14" font-weight="bold" lengthAdjust="spacing" textLength="196.1162" x="620.4108" y="75.8096">&#1058;&#1077;&#1082;&#1091;&#1097;&#1080;&#1081; &#1082;&#1086;&#1085;&#1090;&#1091;&#1088; Strapi + Astro</text></g><!--cluster Monorepo Nx + pnpm--><g class="cluster" data-qualified-name="Monorepo Nx . pnpm" data-source-line="9" id="ent0004"><rect fill="none" height="753" rx="2.5" ry="2.5" style="stroke:#171717;stroke-width:1;" width="770.88" x="368.22" y="166.2579"/><text fill="#000000" font-family="Times New Roman" font-size="14" font-weight="bold" lengthAdjust="spacing" textLength="132.8223" x="687.2489" y="181.3282">Monorepo Nx + pnpm</text></g><!--cluster CmsApp--><g class="cluster" data-qualified-name="Monorepo Nx . pnpm.CmsApp" data-source-line="10" id="ent0005"><path d="M399.95,209.2579 L456.1844,209.2579 A3.75,3.75 0 0 1 458.6844,211.7579 L465.6844,247.4552 L1089.88,247.4552 A2.5,2.5 0 0 1 1092.38,249.9552 L1092.38,545.7579 A2.5,2.5 0 0 1 1089.88,548.2579 L399.95,548.2579 A2.5,2.5 0 0 1 397.45,545.7579 L397.45,211.7579 A2.5,2.5 0 0 1 399.95,209.2579" fill="none" style="stroke:#171717;stroke-width:1.5;"/><line style="stroke:#171717;stroke-width:1.5;" x1="397.45" x2="465.6844" y1="247.4552" y2="247.4552"/><text fill="#171717" font-family="Times New Roman" font-size="14" font-weight="bold" lengthAdjust="spacing" textLength="55.2344" x="401.45" y="224.3282">apps/cms</text><text fill="#171717" font-family="Times New Roman" font-size="14" font-weight="bold" lengthAdjust="spacing" textLength="47.8379" x="405.1482" y="240.4268">Strapi 5</text></g><!--cluster FrontApp--><g class="cluster" data-qualified-name="Monorepo Nx . pnpm.FrontApp" data-source-line="18" id="ent0011"><path d="M394.72,572.2579 L457.9544,572.2579 A3.75,3.75 0 0 1 460.4544,574.7579 L467.4544,610.4552 L1112.6,610.4552 A2.5,2.5 0 0 1 1115.1,612.9552 L1115.1,892.7579 A2.5,2.5 0 0 1 1112.6,895.2579 L394.72,895.2579 A2.5,2.5 0 0 1 392.22,892.7579 L392.22,574.7579 A2.5,2.5 0 0 1 394.72,572.2579" fill="none" style="stroke:#171717;stroke-width:1.5;"/><line style="stroke:#171717;stroke-width:1.5;" x1="392.22" x2="467.4544" y1="610.4552" y2="610.4552"/><text fill="#171717" font-family="Times New Roman" font-size="14" font-weight="bold" lengthAdjust="spacing" textLength="62.2344" x="396.22" y="587.3282">apps/front</text><text fill="#171717" font-family="Times New Roman" font-size="14" font-weight="bold" lengthAdjust="spacing" textLength="43.9346" x="405.3699" y="603.4268">Astro 6</text></g><!--entity AdminUi--><g class="entity" data-qualified-name="Monorepo Nx . pnpm.CmsApp.AdminUi" data-source-line="11" id="ent0006"><rect fill="#F1F1F1" height="46.0986" rx="2.5" ry="2.5" style="stroke:#181818;stroke-width:0.5;" width="134.1035" x="443.58" y="384.2079"/><rect fill="#F1F1F1" height="10" style="stroke:#181818;stroke-width:0.5;" width="15" x="557.6835" y="389.2079"/><rect fill="#F1F1F1" height="2" style="stroke:#181818;stroke-width:0.5;" width="4" x="555.6835" y="391.2079"/><rect fill="#F1F1F1" height="2" style="stroke:#181818;stroke-width:0.5;" width="4" x="555.6835" y="395.2079"/><text fill="#000000" font-family="Times New Roman" font-size="14" lengthAdjust="spacing" textLength="94.1035" x="458.58" y="417.2782">Strapi Admin UI</text></g><!--entity ContentModel--><g class="entity" data-qualified-name="Monorepo Nx . pnpm.CmsApp.ContentModel" data-source-line="12" id="ent0007"><rect fill="#F1F1F1" height="94.3945" rx="2.5" ry="2.5" style="stroke:#181818;stroke-width:0.5;" width="181.1143" x="887.21" y="260.0579"/><rect fill="#F1F1F1" height="10" style="stroke:#181818;stroke-width:0.5;" width="15" x="1048.3243" y="265.0579"/><rect fill="#F1F1F1" height="2" style="stroke:#181818;stroke-width:0.5;" width="4" x="1046.3243" y="267.0579"/><rect fill="#F1F1F1" height="2" style="stroke:#181818;stroke-width:0.5;" width="4" x="1046.3243" y="271.0579"/><text fill="#000000" font-family="Times New Roman" font-size="14" lengthAdjust="spacing" textLength="77.3828" x="902.21" y="293.1282">Content types</text><text fill="#000000" font-family="Times New Roman" font-size="14" lengthAdjust="spacing" textLength="141.1143" x="902.21" y="309.2268">page, home-page, global,</text><text fill="#000000" font-family="Times New Roman" font-size="14" lengthAdjust="spacing" textLength="137.1973" x="902.21" y="325.3255">article, project, vacancy,</text><text fill="#000000" font-family="Times New Roman" font-size="14" lengthAdjust="spacing" textLength="112.7178" x="902.21" y="341.4241">vacancy-application</text></g><!--entity PreviewConfig--><g class="entity" data-qualified-name="Monorepo Nx . pnpm.CmsApp.PreviewConfig" data-source-line="13" id="ent0008"><rect fill="#F1F1F1" height="62.1973" rx="2.5" ry="2.5" style="stroke:#181818;stroke-width:0.5;" width="127.4863" x="914.03" y="389.1579"/><rect fill="#F1F1F1" height="10" style="stroke:#181818;stroke-width:0.5;" width="15" x="1021.5163" y="394.1579"/><rect fill="#F1F1F1" height="2" style="stroke:#181818;stroke-width:0.5;" width="4" x="1019.5163" y="396.1579"/><rect fill="#F1F1F1" height="2" style="stroke:#181818;stroke-width:0.5;" width="4" x="1019.5163" y="400.1579"/><text fill="#000000" font-family="Times New Roman" font-size="14" lengthAdjust="spacing" textLength="85.1416" x="929.03" y="422.2282">Preview config</text><text fill="#000000" font-family="Times New Roman" font-size="14" lengthAdjust="spacing" textLength="87.4863" x="929.03" y="438.3268">config/admin.ts</text></g><!--entity PublishGuard--><g class="entity" data-qualified-name="Monorepo Nx . pnpm.CmsApp.PublishGuard" data-source-line="14" id="ent0009"><rect fill="#F1F1F1" height="62.1973" rx="2.5" ry="2.5" style="stroke:#181818;stroke-width:0.5;" width="194.3623" x="413.45" y="465.1579"/><rect fill="#F1F1F1" height="10" style="stroke:#181818;stroke-width:0.5;" width="15" x="587.8123" y="470.1579"/><rect fill="#F1F1F1" height="2" style="stroke:#181818;stroke-width:0.5;" width="4" x="585.8123" y="472.1579"/><rect fill="#F1F1F1" height="2" style="stroke:#181818;stroke-width:0.5;" width="4" x="585.8123" y="476.1579"/><text fill="#000000" font-family="Times New Roman" font-size="14" lengthAdjust="spacing" textLength="154.3623" x="428.45" y="498.2282">Published-only middleware</text><text fill="#000000" font-family="Times New Roman" font-size="14" lengthAdjust="spacing" textLength="113.9072" x="428.45" y="514.3268">enforce-published.ts</text></g><!--entity CmsApi--><g class="entity" data-qualified-name="Monorepo Nx . pnpm.CmsApp.CmsApi" data-source-line="15" id="ent0010"><rect fill="#F1F1F1" height="46.0986" rx="2.5" ry="2.5" style="stroke:#181818;stroke-width:0.5;" width="197.2266" x="879.16" y="486.2079"/><rect fill="#F1F1F1" height="10" style="stroke:#181818;stroke-width:0.5;" width="15" x="1056.3866" y="491.2079"/><rect fill="#F1F1F1" height="2" style="stroke:#181818;stroke-width:0.5;" width="4" x="1054.3866" y="493.2079"/><rect fill="#F1F1F1" height="2" style="stroke:#181818;stroke-width:0.5;" width="4" x="1054.3866" y="497.2079"/><text fill="#000000" font-family="Times New Roman" font-size="14" lengthAdjust="spacing" textLength="157.2266" x="894.16" y="519.2782">REST API + OpenAPI docs</text></g><!--entity PublicRoutes--><g class="entity" data-qualified-name="Monorepo Nx . pnpm.FrontApp.PublicRoutes" data-source-line="19" id="ent0012"><rect fill="#F1F1F1" height="62.1973" rx="2.5" ry="2.5" style="stroke:#181818;stroke-width:0.5;" width="171.3936" x="424.93" y="817.1579"/><rect fill="#F1F1F1" height="10" style="stroke:#181818;stroke-width:0.5;" width="15" x="576.3236" y="822.1579"/><rect fill="#F1F1F1" height="2" style="stroke:#181818;stroke-width:0.5;" width="4" x="574.3236" y="824.1579"/><rect fill="#F1F1F1" height="2" style="stroke:#181818;stroke-width:0.5;" width="4" x="574.3236" y="828.1579"/><text fill="#000000" font-family="Times New Roman" font-size="14" lengthAdjust="spacing" textLength="131.3936" x="439.93" y="850.2282">Localized public routes</text><text fill="#000000" font-family="Times New Roman" font-size="14" lengthAdjust="spacing" textLength="130.6416" x="439.93" y="866.3268">/ru/, /en/, /:locale/:slug/</text></g><!--entity CollectionRoutes--><g class="entity" data-qualified-name="Monorepo Nx . pnpm.FrontApp.CollectionRoutes" data-source-line="20" id="ent0013"><rect fill="#F1F1F1" height="62.1973" rx="2.5" ry="2.5" style="stroke:#181818;stroke-width:0.5;" width="204.8145" x="408.22" y="720.1579"/><rect fill="#F1F1F1" height="10" style="stroke:#181818;stroke-width:0.5;" width="15" x="593.0345" y="725.1579"/><rect fill="#F1F1F1" height="2" style="stroke:#181818;stroke-width:0.5;" width="4" x="591.0345" y="727.1579"/><rect fill="#F1F1F1" height="2" style="stroke:#181818;stroke-width:0.5;" width="4" x="591.0345" y="731.1579"/><text fill="#000000" font-family="Times New Roman" font-size="14" lengthAdjust="spacing" textLength="96.0381" x="423.22" y="753.2282">Collection routes</text><text fill="#000000" font-family="Times New Roman" font-size="14" lengthAdjust="spacing" textLength="164.8145" x="423.22" y="769.3268">/articles, /projects, /vacancies</text></g><!--entity PreviewRoutes--><g class="entity" data-qualified-name="Monorepo Nx . pnpm.FrontApp.PreviewRoutes" data-source-line="21" id="ent0014"><rect fill="#F1F1F1" height="62.1973" rx="2.5" ry="2.5" style="stroke:#181818;stroke-width:0.5;" width="180.3418" x="420.46" y="623.1579"/><rect fill="#F1F1F1" height="10" style="stroke:#181818;stroke-width:0.5;" width="15" x="580.8018" y="628.1579"/><rect fill="#F1F1F1" height="2" style="stroke:#181818;stroke-width:0.5;" width="4" x="578.8018" y="630.1579"/><rect fill="#F1F1F1" height="2" style="stroke:#181818;stroke-width:0.5;" width="4" x="578.8018" y="634.1579"/><text fill="#000000" font-family="Times New Roman" font-size="14" lengthAdjust="spacing" textLength="83.5898" x="435.46" y="656.2282">Preview routes</text><text fill="#000000" font-family="Times New Roman" font-size="14" lengthAdjust="spacing" textLength="140.3418" x="435.46" y="672.3268">/api/preview, /preview/...</text></g><!--entity LayoutSeo--><g class="entity" data-qualified-name="Monorepo Nx . pnpm.FrontApp.LayoutSeo" data-source-line="22" id="ent0015"><rect fill="#F1F1F1" height="62.1973" rx="2.5" ry="2.5" style="stroke:#181818;stroke-width:0.5;" width="178.1406" x="888.7" y="799.1579"/><rect fill="#F1F1F1" height="10" style="stroke:#181818;stroke-width:0.5;" width="15" x="1046.8406" y="804.1579"/><rect fill="#F1F1F1" height="2" style="stroke:#181818;stroke-width:0.5;" width="4" x="1044.8406" y="806.1579"/><rect fill="#F1F1F1" height="2" style="stroke:#181818;stroke-width:0.5;" width="4" x="1044.8406" y="810.1579"/><text fill="#000000" font-family="Times New Roman" font-size="14" lengthAdjust="spacing" textLength="138.1406" x="903.7" y="832.2282">Layout + SEO rendering</text><text fill="#000000" font-family="Times New Roman" font-size="14" lengthAdjust="spacing" textLength="58.707" x="903.7" y="848.3268">main.astro</text></g><!--entity FrontData--><g class="entity" data-qualified-name="Monorepo Nx . pnpm.FrontApp.FrontData" data-source-line="23" id="ent0016"><rect fill="#F1F1F1" height="46.0986" rx="2.5" ry="2.5" style="stroke:#181818;stroke-width:0.5;" width="242.6582" x="856.44" y="647.2079"/><rect fill="#F1F1F1" height="10" style="stroke:#181818;stroke-width:0.5;" width="15" x="1079.0982" y="652.2079"/><rect fill="#F1F1F1" height="2" style="stroke:#181818;stroke-width:0.5;" width="4" x="1077.0982" y="654.2079"/><rect fill="#F1F1F1" height="2" style="stroke:#181818;stroke-width:0.5;" width="4" x="1077.0982" y="658.2079"/><text fill="#000000" font-family="Times New Roman" font-size="14" lengthAdjust="spacing" textLength="202.6582" x="871.44" y="680.2782">Generated SDK + custom data layer</text></g><!--entity Editor--><g class="entity" data-qualified-name="Editor" data-source-line="6" id="ent0002"><ellipse cx="62.6118" cy="594.7079" fill="#F1F1F1" rx="8" ry="8" style="stroke:#181818;stroke-width:0.5;"/><path d="M62.6118,602.7079 L62.6118,629.7079 M49.6118,610.7079 L75.6118,610.7079 M62.6118,629.7079 L49.6118,644.7079 M62.6118,629.7079 L75.6118,644.7079" fill="none" style="stroke:#181818;stroke-width:0.5;"/><text fill="#000000" font-family="Times New Roman" font-size="14" lengthAdjust="spacing" textLength="113.2236" x="6" y="659.2782">&#1050;&#1086;&#1085;&#1090;&#1077;&#1085;&#1090;-&#1084;&#1077;&#1085;&#1077;&#1076;&#1078;&#1077;&#1088;</text></g><!--entity Visitor--><g class="entity" data-qualified-name="Visitor" data-source-line="7" id="ent0003"><ellipse cx="62.6118" cy="738.7079" fill="#F1F1F1" rx="8" ry="8" style="stroke:#181818;stroke-width:0.5;"/><path d="M62.6118,746.7079 L62.6118,773.7079 M49.6118,754.7079 L75.6118,754.7079 M62.6118,773.7079 L49.6118,788.7079 M62.6118,773.7079 L75.6118,788.7079" fill="none" style="stroke:#181818;stroke-width:0.5;"/><text fill="#000000" font-family="Times New Roman" font-size="14" lengthAdjust="spacing" textLength="104.6035" x="10.31" y="803.2782">&#1055;&#1086;&#1089;&#1077;&#1090;&#1080;&#1090;&#1077;&#1083;&#1100; &#1089;&#1072;&#1081;&#1090;&#1072;</text></g><!--entity SqliteDb--><g class="entity" data-qualified-name="SqliteDb" data-source-line="27" id="ent0017"><path d="M1348.8,438.7079 C1348.8,428.7079 1379.0207,428.7079 1379.0207,428.7079 C1379.0207,428.7079 1409.2414,428.7079 1409.2414,438.7079 L1409.2414,463.8065 C1409.2414,473.8065 1379.0207,473.8065 1379.0207,473.8065 C1379.0207,473.8065 1348.8,473.8065 1348.8,463.8065 L1348.8,438.7079" fill="#F1F1F1" style="stroke:#181818;stroke-width:0.5;"/><path d="M1348.8,438.7079 C1348.8,448.7079 1379.0207,448.7079 1379.0207,448.7079 C1379.0207,448.7079 1409.2414,448.7079 1409.2414,438.7079" fill="none" style="stroke:#181818;stroke-width:0.5;"/><text fill="#000000" font-family="Times New Roman" font-size="14" lengthAdjust="spacing" textLength="40.4414" x="1358.8" y="465.7782">SQLite</text></g><!--entity OpenApiJson--><g class="entity" data-qualified-name="OpenApiJson" data-source-line="28" id="ent0018"><rect fill="#F1F1F1" height="39.0986" rx="2.5" ry="2.5" style="stroke:#181818;stroke-width:0.5;" width="119.8379" x="1319.1" y="548.7079"/><polygon fill="#F1F1F1" points="1421.9379,553.7079,1421.9379,567.7079,1433.9379,567.7079,1433.9379,559.7079,1427.9379,553.7079,1421.9379,553.7079" style="stroke:#181818;stroke-width:0.5;"/><line style="stroke:#181818;stroke-width:0.5;" x1="1427.9379" x2="1427.9379" y1="553.7079" y2="559.7079"/><line style="stroke:#181818;stroke-width:0.5;" x1="1433.9379" x2="1427.9379" y1="559.7079" y2="559.7079"/><text fill="#000000" font-family="Times New Roman" font-size="14" lengthAdjust="spacing" textLength="89.8379" x="1329.1" y="574.7782">OpenAPI JSON</text></g><g class="entity" data-qualified-name="GMN39" data-source-line="58" id="ent0040"><path d="M867.64,934.8879 L867.64,942.8779 L596.67,871.8379 L867.64,950.8779 L867.64,1019.6315 A0,0 0 0 0 867.64,1019.6315 L1087.8929,1019.6315 A0,0 0 0 0 1087.8929,1019.6315 L1087.8929,944.8879 L1077.8929,934.8879 L867.64,934.8879 A0,0 0 0 0 867.64,934.8879" fill="#F9F9F9" style="stroke:#171717;stroke-width:0.5;"/><path d="M1077.8929,934.8879 L1077.8929,944.8879 L1087.8929,944.8879 L1077.8929,934.8879" fill="#F9F9F9" style="stroke:#171717;stroke-width:0.5;"/><text fill="#000000" font-family="Times New Roman" font-size="13" lengthAdjust="spacing" textLength="153.7656" x="873.64" y="952.0246">Locale-prefixed public routes</text><text fill="#000000" font-family="Times New Roman" font-size="13" lengthAdjust="spacing" textLength="198.1611" x="873.64" y="966.9733">currently cover home-page and pages.</text><text fill="#000000" font-family="Times New Roman" font-size="13" lengthAdjust="spacing" textLength="160.9766" x="873.64" y="981.9221">articles, projects and vacancies</text><text fill="#000000" font-family="Times New Roman" font-size="13" lengthAdjust="spacing" textLength="199.2529" x="873.64" y="996.8708">remain outside the full locale-prefixed</text><text fill="#000000" font-family="Times New Roman" font-size="13" lengthAdjust="spacing" textLength="119.5073" x="873.64" y="1011.8195">public routing contour.</text></g><g class="entity" data-qualified-name="GMN42" data-source-line="66" id="ent0043"><path d="M394.82,95.8379 L394.82,150.6841 L626.4416,150.6841 L626.4416,105.8379 L616.4416,95.8379 L394.82,95.8379" fill="#F9F9F9" style="stroke:#171717;stroke-width:0.5;"/><path d="M616.4416,95.8379 L616.4416,105.8379 L626.4416,105.8379 L616.4416,95.8379" fill="#F9F9F9" style="stroke:#171717;stroke-width:1;"/><text fill="#000000" font-family="Times New Roman" font-size="13" lengthAdjust="spacing" textLength="188.8174" x="400.82" y="112.9746">Preview is server-side only and uses</text><text fill="#000000" font-family="Times New Roman" font-size="13" lengthAdjust="spacing" textLength="210.6216" x="400.82" y="127.9233">PREVIEW_SECRET + httpOnly cookie</text><text fill="#000000" font-family="Times New Roman" font-size="13" lengthAdjust="spacing" textLength="150.9028" x="400.82" y="142.8721">instead of a public draft API.</text></g><!--link Editor to AdminUi--><g class="link" data-entity-1="ent0002" data-entity-2="ent0006" data-link-type="dependency" data-source-line="30" id="lnk19"><path d="M117.49,585.8479 C175.14,546.2779 270.46,485.1879 360.22,447.2579 C386.57,436.1279 411.0227,428.7571 437.4027,422.2871" fill="none" id="Editor-to-AdminUi" style="stroke:#171717;stroke-width:1;"/><polygon fill="#171717" points="443.23,420.8579,433.5363,419.1168,438.3739,422.0489,435.4419,426.8866,443.23,420.8579" style="stroke:#171717;stroke-width:1;"/><text fill="#000000" font-family="Times New Roman" font-size="13" lengthAdjust="spacing" textLength="115.1719" x="193.22" y="448.0446">&#1088;&#1077;&#1076;&#1072;&#1082;&#1090;&#1080;&#1088;&#1091;&#1077;&#1090; &#1082;&#1086;&#1085;&#1090;&#1077;&#1085;&#1090;</text></g><!--link AdminUi to ContentModel--><g class="link" data-entity-1="ent0006" data-entity-2="ent0007" data-link-type="dependency" data-source-line="31" id="lnk20"><path d="M577.78,393.0379 C658.79,375.6179 790.5141,347.2993 881.0541,327.8293" fill="none" id="AdminUi-to-ContentModel" style="stroke:#171717;stroke-width:1;"/><polygon fill="#171717" points="886.92,326.5679,877.2802,324.5494,882.0317,327.6191,878.9621,332.3706,886.92,326.5679" style="stroke:#171717;stroke-width:1;"/><text fill="#000000" font-family="Times New Roman" font-size="13" lengthAdjust="spacing" textLength="86.2646" x="698.44" y="336.7346">content manager</text></g><!--link ContentModel to SqliteDb--><g class="link" data-entity-1="ent0007" data-entity-2="ent0017" data-link-type="dependency" data-source-line="32" id="lnk21"><path d="M1068.37,339.5679 C1157.8,371.8279 1284.4358,417.5025 1342.8358,438.5625" fill="none" id="ContentModel-to-SqliteDb" style="stroke:#171717;stroke-width:1;"/><polygon fill="#171717" points="1348.48,440.5979,1341.3706,433.782,1343.7765,438.9017,1338.6567,441.3076,1348.48,440.5979" style="stroke:#171717;stroke-width:1;"/><text fill="#000000" font-family="Times New Roman" font-size="13" lengthAdjust="spacing" textLength="97.7476" x="1173.6" y="372.0746">&#1093;&#1088;&#1072;&#1085;&#1077;&#1085;&#1080;&#1077; &#1079;&#1072;&#1087;&#1080;&#1089;&#1077;&#1081;</text></g><!--link AdminUi to PreviewConfig--><g class="link" data-entity-1="ent0006" data-entity-2="ent0008" data-link-type="dependency" data-source-line="34" id="lnk22"><path d="M577.78,409.1079 C667.32,411.6079 819.9824,415.8699 907.8324,418.3299" fill="none" id="AdminUi-to-PreviewConfig" style="stroke:#171717;stroke-width:1;"/><polygon fill="#171717" points="913.83,418.4979,904.9455,414.2475,908.832,418.3579,904.7216,422.2444,913.83,418.4979" style="stroke:#171717;stroke-width:1;"/><text fill="#000000" font-family="Times New Roman" font-size="13" lengthAdjust="spacing" textLength="76.8828" x="703.44" y="408.5946">preview action</text></g><!--link PreviewConfig to PreviewRoutes--><g class="link" data-entity-1="ent0008" data-entity-2="ent0014" data-link-type="dependency" data-source-line="35" id="lnk23"><path d="M913.71,435.6579 C893.61,442.9579 872.45,453.4379 856.44,468.2579 C834.27,488.7779 849.39,509.6079 826.44,529.2579 C766.32,580.7179 729.89,552.7679 656.44,582.2579 C627.26,593.9779 601.2213,606.4653 575.1713,619.9153" fill="none" id="PreviewConfig-to-PreviewRoutes" style="stroke:#171717;stroke-width:1;"/><polygon fill="#171717" points="569.84,622.6679,579.6721,622.0931,574.2828,620.374,576.0019,614.9847,569.84,622.6679" style="stroke:#171717;stroke-width:1;"/><text fill="#000000" font-family="Times New Roman" font-size="13" lengthAdjust="spacing" textLength="135.4272" x="673.94" y="526.3946">&#1092;&#1086;&#1088;&#1084;&#1080;&#1088;&#1091;&#1077;&#1090; preview URL</text></g><!--link PublishGuard to CmsApi--><g class="link" data-entity-1="ent0009" data-entity-2="ent0010" data-link-type="dependency" data-source-line="37" id="lnk24"><path d="M608.29,498.9579 C687.61,501.1779 793.4224,504.1299 873.0424,506.3599" fill="none" id="PublishGuard-to-CmsApi" style="stroke:#171717;stroke-width:1;"/><polygon fill="#171717" points="879.04,506.5279,870.1555,502.2775,874.042,506.3879,869.9315,510.2743,879.04,506.5279" style="stroke:#171717;stroke-width:1;"/><text fill="#000000" font-family="Times New Roman" font-size="13" lengthAdjust="spacing" textLength="168.1558" x="657.44" y="482.5946">&#1086;&#1075;&#1088;&#1072;&#1085;&#1080;&#1095;&#1080;&#1074;&#1072;&#1077;&#1090; &#1087;&#1091;&#1073;&#1083;&#1080;&#1095;&#1085;&#1099;&#1077; GET</text><text fill="#000000" font-family="Times New Roman" font-size="13" lengthAdjust="spacing" textLength="87.4961" x="697.7698" y="497.5433">status=published</text></g><!--link CmsApi to SqliteDb--><g class="link" data-entity-1="ent0010" data-entity-2="ent0017" data-link-type="dependency" data-source-line="38" id="lnk25"><path d="M1076.69,495.0279 C1165.81,482.0879 1285.8824,464.6408 1342.5124,456.4108" fill="none" id="CmsApi-to-SqliteDb" style="stroke:#171717;stroke-width:1;"/><polygon fill="#171717" points="1348.45,455.5479,1338.9683,452.8838,1343.502,456.267,1340.1188,460.8007,1348.45,455.5479" style="stroke:#171717;stroke-width:1;"/><text fill="#000000" font-family="Times New Roman" font-size="13" lengthAdjust="spacing" textLength="132.4312" x="1156.1" y="462.4046">&#1095;&#1090;&#1077;&#1085;&#1080;&#1077; &#1080; &#1079;&#1072;&#1087;&#1080;&#1089;&#1100; &#1076;&#1072;&#1085;&#1085;&#1099;&#1093;</text></g><!--link CmsApi to OpenApiJson--><g class="link" data-entity-1="ent0010" data-entity-2="ent0018" data-link-type="dependency" data-source-line="39" id="lnk26"><path d="M1076.69,523.7279 C1152.53,534.9379 1249.1645,549.2102 1312.9345,558.6402" fill="none" id="CmsApi-to-OpenApiJson" style="stroke:#171717;stroke-width:1;"/><polygon fill="#171717" points="1318.87,559.5179,1310.552,554.2444,1313.9238,558.7865,1309.3817,562.1583,1318.87,559.5179" style="stroke:#171717;stroke-width:1;"/><text fill="#000000" font-family="Times New Roman" font-size="13" lengthAdjust="spacing" textLength="117.9966" x="1163.6" y="534.1246">&#1087;&#1091;&#1073;&#1083;&#1080;&#1082;&#1091;&#1077;&#1090; &#1089;&#1093;&#1077;&#1084;&#1091; API</text></g><!--link FrontData to OpenApiJson--><g class="link" data-entity-1="ent0016" data-entity-2="ent0018" data-link-type="dependency" data-source-line="41" id="lnk27"><path d="M1076.81,646.7479 C1137.97,631.8879 1218.26,611.9979 1289.1,593.2579 C1298.71,590.7179 1303.0989,589.5438 1312.9989,586.7938" fill="none" id="FrontData-to-OpenApiJson" style="stroke:#171717;stroke-width:1;stroke-dasharray:7,7;"/><polygon fill="#171717" points="1318.78,585.1879,1309.0378,583.7426,1313.9624,586.5261,1311.1789,591.4508,1318.78,585.1879" style="stroke:#171717;stroke-width:1;"/><text fill="#000000" font-family="Times New Roman" font-size="13" lengthAdjust="spacing" textLength="82.6465" x="1181.1" y="575.3946">generated client</text><text fill="#000000" font-family="Times New Roman" font-size="13" lengthAdjust="spacing" textLength="82.2974" x="1181.2746" y="590.3433">articles/projects</text></g><!--link FrontData to CmsApi--><g class="link" data-entity-1="ent0016" data-entity-2="ent0010" data-link-type="dependency" data-source-line="42" id="lnk28"><path d="M977.77,646.8479 C977.77,616.3179 977.77,569.2379 977.77,538.6979" fill="none" id="FrontData-to-CmsApi" style="stroke:#171717;stroke-width:1;stroke-dasharray:7,7;"/><polygon fill="#171717" points="977.77,532.6979,973.77,541.6979,977.77,537.6979,981.77,541.6979,977.77,532.6979" style="stroke:#171717;stroke-width:1;"/><text fill="#000000" font-family="Times New Roman" font-size="13" lengthAdjust="spacing" textLength="120.5991" x="906.77" y="594.8946">published API requests</text></g><!--link PreviewRoutes to CmsApi--><g class="link" data-entity-1="ent0014" data-entity-2="ent0010" data-link-type="dependency" data-source-line="43" id="lnk29"><path d="M601,655.5579 C665.63,653.7179 753.97,645.3679 826.44,617.2579 C876.18,597.9679 920.1905,562.325 948.1105,536.815" fill="none" id="PreviewRoutes-to-CmsApi" style="stroke:#171717;stroke-width:1;stroke-dasharray:7,7;"/><polygon fill="#171717" points="952.54,532.7679,943.1976,535.8856,948.8487,536.1405,948.5938,541.7916,952.54,532.7679" style="stroke:#171717;stroke-width:1;"/><text fill="#000000" font-family="Times New Roman" font-size="13" lengthAdjust="spacing" textLength="70.3892" x="706.4141" y="599.3946">draft requests</text><text fill="#000000" font-family="Times New Roman" font-size="13" lengthAdjust="spacing" textLength="87.3374" x="697.94" y="614.3433">x-preview-secret</text></g><!--link PublicRoutes to FrontData--><g class="link" data-entity-1="ent0012" data-entity-2="ent0016" data-link-type="dependency" data-source-line="45" id="lnk30"><path d="M596.79,827.3279 C661.08,810.3279 750.85,784.0079 826.44,752.2579 C866.18,735.5579 903.9761,714.5398 933.7561,696.7898" fill="none" id="PublicRoutes-to-FrontData" style="stroke:#171717;stroke-width:1;"/><polygon fill="#171717" points="938.91,693.7179,929.1311,694.8898,934.615,696.2778,933.227,701.7618,938.91,693.7179" style="stroke:#171717;stroke-width:1;"/><text fill="#000000" font-family="Times New Roman" font-size="13" lengthAdjust="spacing" textLength="101.1816" x="690.94" y="749.3946">home-page + pages</text></g><!--link CollectionRoutes to FrontData--><g class="link" data-entity-1="ent0013" data-entity-2="ent0016" data-link-type="dependency" data-source-line="46" id="lnk31"><path d="M613.52,735.7079 C675.23,726.0579 755.48,713.0779 826.44,700.2579 C837.7,698.2179 843.5278,697.16 855.2378,694.91" fill="none" id="CollectionRoutes-to-FrontData" style="stroke:#171717;stroke-width:1;"/><polygon fill="#171717" points="861.13,693.7779,851.5369,691.548,856.2198,694.7213,853.0464,699.4043,861.13,693.7779" style="stroke:#171717;stroke-width:1;"/><text fill="#000000" font-family="Times New Roman" font-size="13" lengthAdjust="spacing" textLength="136.4302" x="673.44" y="697.3946">articles/projects/vacancies</text></g><!--link PreviewRoutes to FrontData--><g class="link" data-entity-1="ent0014" data-entity-2="ent0016" data-link-type="dependency" data-source-line="47" id="lnk32"><path d="M601.06,667.8479 C619.34,670.0979 638.48,672.0779 656.44,673.2579 C722.34,677.5579 790.0321,677.3876 850.1021,675.7876" fill="none" id="PreviewRoutes-to-FrontData" style="stroke:#171717;stroke-width:1;"/><polygon fill="#171717" points="856.1,675.6279,846.9967,671.8689,851.1018,675.761,847.2097,679.8661,856.1,675.6279" style="stroke:#171717;stroke-width:1;"/><text fill="#000000" font-family="Times New Roman" font-size="13" lengthAdjust="spacing" textLength="68.9292" x="707.44" y="670.3946">draft fetchers</text></g><!--link PublicRoutes to LayoutSeo--><g class="link" data-entity-1="ent0012" data-entity-2="ent0015" data-link-type="dependency" data-source-line="49" id="lnk33"><path d="M596.5,846.5479 C659.88,845.0979 748.6,842.6979 826.44,839.2579 C846.55,838.3679 862.1804,837.5504 882.5704,836.3504" fill="none" id="PublicRoutes-to-LayoutSeo" style="stroke:#171717;stroke-width:1;"/><polygon fill="#171717" points="888.56,835.9979,879.3405,832.5336,883.5686,836.2916,879.8105,840.5197,888.56,835.9979" style="stroke:#171717;stroke-width:1;"/></g><!--link CollectionRoutes to LayoutSeo--><g class="link" data-entity-1="ent0013" data-entity-2="ent0015" data-link-type="dependency" data-source-line="50" id="lnk34"><path d="M595.97,782.8379 C606.49,787.8379 616.89,793.3379 626.44,799.2579 C641.44,808.5579 639.96,818.9579 656.44,825.2579 C677.55,833.3179 794.9306,833.2397 882.2406,832.0497" fill="none" id="CollectionRoutes-to-LayoutSeo" style="stroke:#171717;stroke-width:1;"/><polygon fill="#171717" points="888.24,831.9679,879.1863,828.0909,883.2405,832.036,879.2953,836.0902,888.24,831.9679" style="stroke:#171717;stroke-width:1;"/></g><!--link PreviewRoutes to LayoutSeo--><g class="link" data-entity-1="ent0014" data-entity-2="ent0015" data-link-type="dependency" data-source-line="51" id="lnk35"><path d="M601.19,673.0779 C619.46,676.8379 638.56,680.7179 656.44,684.2579 C731.86,699.1679 756.16,685.0879 826.44,716.2579 C871.8,736.3779 911.696,768.5547 940.326,794.7847" fill="none" id="PreviewRoutes-to-LayoutSeo" style="stroke:#171717;stroke-width:1;"/><polygon fill="#171717" points="944.75,798.8379,940.8161,789.8088,941.0633,795.4603,935.4119,795.7075,944.75,798.8379" style="stroke:#171717;stroke-width:1;"/></g><!--link Visitor to PublicRoutes--><g class="link" data-entity-1="ent0003" data-entity-2="ent0012" data-link-type="dependency" data-source-line="53" id="lnk36"><path d="M115.1,780.8479 C126.32,783.4379 138.15,786.0379 149.22,788.2579 C242.99,806.9979 345.369,823.5605 418.579,834.7605" fill="none" id="Visitor-to-PublicRoutes" style="stroke:#171717;stroke-width:1;"/><polygon fill="#171717" points="424.51,835.6679,416.2184,830.3529,419.5675,834.9118,415.0086,838.2609,424.51,835.6679" style="stroke:#171717;stroke-width:1;"/><text fill="#000000" font-family="Times New Roman" font-size="13" lengthAdjust="spacing" textLength="201.4683" x="150.22" y="785.3946">&#1086;&#1090;&#1082;&#1088;&#1099;&#1074;&#1072;&#1077;&#1090; &#1083;&#1086;&#1082;&#1072;&#1083;&#1080;&#1079;&#1086;&#1074;&#1072;&#1085;&#1085;&#1091;&#1102; &#1074;&#1080;&#1090;&#1088;&#1080;&#1085;&#1091;</text></g><!--link Visitor to CollectionRoutes--><g class="link" data-entity-1="ent0003" data-entity-2="ent0013" data-link-type="dependency" data-source-line="54" id="lnk37"><path d="M115.21,766.2879 C186.53,763.5679 310.7344,758.8366 401.9744,755.3566" fill="none" id="Visitor-to-CollectionRoutes" style="stroke:#171717;stroke-width:1;"/><polygon fill="#171717" points="407.97,755.1279,398.8241,751.4738,402.9736,755.3185,399.129,759.468,407.97,755.1279" style="stroke:#171717;stroke-width:1;"/><text fill="#000000" font-family="Times New Roman" font-size="13" lengthAdjust="spacing" textLength="173.9258" x="164.22" y="754.8746">&#1086;&#1090;&#1082;&#1088;&#1099;&#1074;&#1072;&#1077;&#1090; &#1082;&#1086;&#1085;&#1090;&#1077;&#1085;&#1090;&#1085;&#1099;&#1077; &#1088;&#1072;&#1079;&#1076;&#1077;&#1083;&#1099;</text></g><!--link Editor to PreviewRoutes--><g class="link" data-entity-1="ent0002" data-entity-2="ent0014" data-link-type="dependency" data-source-line="55" id="lnk38"><path d="M119.65,628.0279 C195.22,633.1079 324.6635,641.8154 414.3435,647.8454" fill="none" id="Editor-to-PreviewRoutes" style="stroke:#171717;stroke-width:1;"/><polygon fill="#171717" points="420.33,648.2479,411.6186,643.6531,415.3413,647.9125,411.0819,651.6351,420.33,648.2479" style="stroke:#171717;stroke-width:1;"/><text fill="#000000" font-family="Times New Roman" font-size="13" lengthAdjust="spacing" textLength="145.0376" x="178.22" y="627.8746">&#1086;&#1090;&#1082;&#1088;&#1099;&#1074;&#1072;&#1077;&#1090; &#1089;&#1089;&#1099;&#1083;&#1082;&#1091; preview</text></g><!--link PreviewRoutes to GMN42--><g class="link" data-entity-1="ent0014" data-entity-2="ent0043" data-link-type="association" data-source-line="66" id="lnk44"><path d="M420.27,639.1579 C357.88,623.5179 279.29,592.2679 239.72,530.7579 C175.05,430.1979 177.33,363.7379 239.72,261.7579 C273.98,205.7679 338.8,171.5079 396.44,151.0679" fill="none" id="PreviewRoutes-GMN42" style="stroke:#171717;stroke-width:1;stroke-dasharray:7,7;"/></g></g></svg>