<?plantuml 1.2026.2?><svg xmlns="http://www.w3.org/2000/svg" xmlns:xlink="http://www.w3.org/1999/xlink" contentStyleType="text/css" data-diagram-type="STATE" height="731px" preserveAspectRatio="none" style="width:1080px;height:731px;background:#FFFFFF;" version="1.1" viewBox="0 0 1080 731" width="1080px" zoomAndPan="magnify"><title>&#1044;&#1080;&#1072;&#1075;&#1088;&#1072;&#1084;&#1084;&#1072; &#1089;&#1086;&#1089;&#1090;&#1086;&#1103;&#1085;&#1080;&#1081;
&#1046;&#1080;&#1079;&#1085;&#1077;&#1085;&#1085;&#1099;&#1081; &#1094;&#1080;&#1082;&#1083; &#1083;&#1086;&#1082;&#1072;&#1083;&#1080;&#1079;&#1086;&#1074;&#1072;&#1085;&#1085;&#1086;&#1081; &#1082;&#1086;&#1085;&#1090;&#1077;&#1085;&#1090;&#1085;&#1086;&#1081; &#1077;&#1076;&#1080;&#1085;&#1080;&#1094;&#1099;</title><defs/><g><rect fill="#F9F9F9" height="26.6406" rx="2.5" ry="2.5" style="stroke:#DDDDDD;stroke-width:3;" width="1069.4584" x="5" y="5"/><text fill="#000000" font-family="monospace" font-size="10" lengthAdjust="spacing" textLength="355.21" x="10" y="20">Please&#160;use&#160;'!option&#160;handwritten&#160;true'&#160;to&#160;enable&#160;handwritten</text><g class="title" data-source-line="2"><text fill="#000000" font-family="Times New Roman" font-size="14" font-weight="bold" lengthAdjust="spacing" textLength="140.4922" x="455.4831" y="59.7109">&#1044;&#1080;&#1072;&#1075;&#1088;&#1072;&#1084;&#1084;&#1072; &#1089;&#1086;&#1089;&#1090;&#1086;&#1103;&#1085;&#1080;&#1081;</text><text fill="#000000" font-family="Times New Roman" font-size="14" font-weight="bold" lengthAdjust="spacing" textLength="358.0186" x="346.7199" y="75.8096">&#1046;&#1080;&#1079;&#1085;&#1077;&#1085;&#1085;&#1099;&#1081; &#1094;&#1080;&#1082;&#1083; &#1083;&#1086;&#1082;&#1072;&#1083;&#1080;&#1079;&#1086;&#1074;&#1072;&#1085;&#1085;&#1086;&#1081; &#1082;&#1086;&#1085;&#1090;&#1077;&#1085;&#1090;&#1085;&#1086;&#1081; &#1077;&#1076;&#1080;&#1085;&#1080;&#1094;&#1099;</text></g><g class="entity" data-qualified-name="Draft" id="ent0002"><rect fill="#F1F1F1" height="77.4951" rx="12.5" ry="12.5" style="stroke:#181818;stroke-width:0.5;" width="193.9824" x="300.42" y="206.8379"/><line style="stroke:#181818;stroke-width:0.5;" x1="300.42" x2="494.4024" y1="232.9365" y2="232.9365"/><text fill="#000000" font-family="Times New Roman" font-size="14" lengthAdjust="spacing" textLength="29.5381" x="382.6422" y="224.9082">Draft</text><text fill="#000000" font-family="Times New Roman" font-size="12" lengthAdjust="spacing" textLength="90.0996" x="305.42" y="249.1396">publishedAt = null</text><text fill="#000000" font-family="Times New Roman" font-size="12" lengthAdjust="spacing" textLength="123.5098" x="305.42" y="262.9385">&#1076;&#1086;&#1089;&#1090;&#1091;&#1087;&#1085;&#1072; &#1074; Strapi Admin</text><text fill="#000000" font-family="Times New Roman" font-size="12" lengthAdjust="spacing" textLength="173.9824" x="305.42" y="276.7373">&#1095;&#1080;&#1090;&#1072;&#1077;&#1090;&#1089;&#1103; &#1095;&#1077;&#1088;&#1077;&#1079; preview-&#1084;&#1072;&#1088;&#1096;&#1088;&#1091;&#1090;&#1099;</text></g><g class="entity" data-qualified-name="Published" id="ent0003"><rect fill="#F1F1F1" height="91.2939" rx="12.5" ry="12.5" style="stroke:#181818;stroke-width:0.5;" width="174.8164" x="7" y="425.3379"/><line style="stroke:#181818;stroke-width:0.5;" x1="7" x2="181.8164" y1="451.4365" y2="451.4365"/><text fill="#000000" font-family="Times New Roman" font-size="14" lengthAdjust="spacing" textLength="55.2275" x="66.7944" y="443.4082">Published</text><text fill="#000000" font-family="Times New Roman" font-size="12" lengthAdjust="spacing" textLength="94.0957" x="12" y="467.6396">publishedAt != null</text><text fill="#000000" font-family="Times New Roman" font-size="12" lengthAdjust="spacing" textLength="154.8164" x="12" y="481.4385">&#1076;&#1086;&#1089;&#1090;&#1091;&#1087;&#1085;&#1072; &#1082;&#1072;&#1082; published content</text><text fill="#000000" font-family="Times New Roman" font-size="12" lengthAdjust="spacing" textLength="114.3809" x="12" y="495.2373">&#1084;&#1086;&#1078;&#1077;&#1090; &#1080;&#1089;&#1087;&#1086;&#1083;&#1100;&#1079;&#1086;&#1074;&#1072;&#1090;&#1100;&#1089;&#1103;</text><text fill="#000000" font-family="Times New Roman" font-size="12" lengthAdjust="spacing" textLength="105.9727" x="12" y="509.0361">public frontend routes</text></g><g class="entity" data-qualified-name="Deleted" id="ent0004"><rect fill="#F1F1F1" height="50" rx="12.5" ry="12.5" style="stroke:#181818;stroke-width:0.5;" width="97.2031" x="400.81" y="592.6279"/><line style="stroke:#181818;stroke-width:0.5;" x1="400.81" x2="498.0131" y1="618.7265" y2="618.7265"/><text fill="#000000" font-family="Times New Roman" font-size="14" lengthAdjust="spacing" textLength="43.5313" x="427.6459" y="610.6982">Deleted</text><text fill="#000000" font-family="Times New Roman" font-size="12" lengthAdjust="spacing" textLength="77.2031" x="405.81" y="634.9296">&#1079;&#1072;&#1087;&#1080;&#1089;&#1100; &#1091;&#1076;&#1072;&#1083;&#1077;&#1085;&#1072;</text></g><g class="start_entity" data-qualified-name=".start." data-source-line="4" id="ent0002"><ellipse cx="397.41" cy="105.8379" fill="#222222" rx="10" ry="10" style="stroke:#222222;stroke-width:1;"/></g><g class="end_entity" data-qualified-name=".end." data-source-line="47" id="ent0011"><ellipse cx="449.41" cy="714.6279" fill="none" rx="11" ry="11" style="stroke:#222222;stroke-width:1;"/><ellipse cx="449.41" cy="714.6279" fill="#222222" rx="6" ry="6" style="stroke:#222222;stroke-width:1;"/></g><g class="entity" data-qualified-name="GMN2" data-source-line="50" id="ent0003"><path d="M870.35,210.6879 L870.35,241.5879 L494.86,245.5879 L870.35,249.5879 L870.35,280.4828 A0,0 0 0 0 870.35,280.4828 L1058.4584,280.4828 A0,0 0 0 0 1058.4584,280.4828 L1058.4584,220.6879 L1048.4584,210.6879 L870.35,210.6879 A0,0 0 0 0 870.35,210.6879" fill="#F9F9F9" style="stroke:#171717;stroke-width:0.5;"/><path d="M1048.4584,210.6879 L1048.4584,220.6879 L1058.4584,220.6879 L1048.4584,210.6879" fill="#F9F9F9" style="stroke:#171717;stroke-width:0.5;"/><text fill="#000000" font-family="Times New Roman" font-size="13" lengthAdjust="spacing" textLength="143.3047" x="876.35" y="227.8246">&#1055;&#1088;&#1080;&#1084;&#1077;&#1085;&#1080;&#1084;&#1086; &#1082; &#1089;&#1091;&#1097;&#1085;&#1086;&#1089;&#1090;&#1103;&#1084;:</text><text fill="#000000" font-family="Times New Roman" font-size="13" lengthAdjust="spacing" textLength="167.1084" x="876.35" y="242.7733">article, author, project, vacancy,</text><text fill="#000000" font-family="Times New Roman" font-size="13" lengthAdjust="spacing" textLength="132.5073" x="876.35" y="257.7221">industry, job-role, global,</text><text fill="#000000" font-family="Times New Roman" font-size="13" lengthAdjust="spacing" textLength="98.998" x="876.35" y="272.6708">home-page &#1080; page.</text></g><g class="entity" data-qualified-name="GMN5" data-source-line="57" id="ent0006"><path d="M542.01,436.0879 L542.01,466.9779 L182.06,470.9779 L542.01,474.9779 L542.01,505.8828 A0,0 0 0 0 542.01,505.8828 L734.8157,505.8828 A0,0 0 0 0 734.8157,505.8828 L734.8157,446.0879 L724.8157,436.0879 L542.01,436.0879 A0,0 0 0 0 542.01,436.0879" fill="#F9F9F9" style="stroke:#171717;stroke-width:0.5;"/><path d="M724.8157,436.0879 L724.8157,446.0879 L734.8157,446.0879 L724.8157,436.0879" fill="#F9F9F9" style="stroke:#171717;stroke-width:0.5;"/><text fill="#000000" font-family="Times New Roman" font-size="13" lengthAdjust="spacing" textLength="171.8057" x="548.01" y="453.2246">vacancy-application &#1080;&#1089;&#1082;&#1083;&#1102;&#1095;&#1077;&#1085;&#1072;:</text><text fill="#000000" font-family="Times New Roman" font-size="13" lengthAdjust="spacing" textLength="154.3115" x="548.01" y="468.1733">&#1101;&#1090;&#1072; &#1089;&#1091;&#1097;&#1085;&#1086;&#1089;&#1090;&#1100; &#1085;&#1077; &#1080;&#1089;&#1087;&#1086;&#1083;&#1100;&#1079;&#1091;&#1077;&#1090;</text><text fill="#000000" font-family="Times New Roman" font-size="13" lengthAdjust="spacing" textLength="154.3242" x="548.01" y="483.1221">draft/publish &#1080; &#1079;&#1072;&#1087;&#1080;&#1089;&#1099;&#1074;&#1072;&#1077;&#1090;&#1089;&#1103;</text><text fill="#000000" font-family="Times New Roman" font-size="13" lengthAdjust="spacing" textLength="132.4248" x="548.01" y="498.0708">&#1082;&#1072;&#1082; &#1087;&#1088;&#1080;&#1082;&#1083;&#1072;&#1076;&#1085;&#1086;&#1081; &#1086;&#1090;&#1082;&#1083;&#1080;&#1082;.</text></g><!--link *start* to Draft--><g class="link" data-entity-1="ent0002" data-entity-2="ent0002" data-link-type="dependency" data-source-line="4" id="lnk3"><path d="M397.41,116.3079 C397.41,134.5979 397.41,169.7179 397.41,200.5079" fill="none" id="*start*-to-Draft" style="stroke:#171717;stroke-width:1;"/><polygon fill="#171717" points="397.41,206.5079,401.41,197.5079,397.41,201.5079,393.41,197.5079,397.41,206.5079" style="stroke:#171717;stroke-width:1;"/><text fill="#000000" font-family="Times New Roman" font-size="13" lengthAdjust="spacing" textLength="84.0684" x="417.2245" y="158.9746">&#1057;&#1086;&#1079;&#1076;&#1072;&#1090;&#1100; &#1079;&#1072;&#1087;&#1080;&#1089;&#1100;</text><text fill="#000000" font-family="Times New Roman" font-size="13" lengthAdjust="spacing" textLength="121.6973" x="398.41" y="173.9233">&#1080; &#1089;&#1086;&#1093;&#1088;&#1072;&#1085;&#1080;&#1090;&#1100; &#1095;&#1077;&#1088;&#1085;&#1086;&#1074;&#1080;&#1082;</text></g><!--link Draft to Draft--><g class="link" data-entity-1="ent0002" data-entity-2="ent0002" data-link-type="dependency" data-source-line="22" id="lnk4"><path d="M494.68,237.9679 C514.88,238.7679 529.4,241.3079 529.4,245.5879 C529.4,249.8679 520.8753,252.1705 500.6753,252.9705" fill="none" id="Draft-to-Draft" style="stroke:#171717;stroke-width:1;"/><polygon fill="#171717" points="494.68,253.2079,503.8312,256.8486,499.6761,253.01,503.5147,248.8549,494.68,253.2079" style="stroke:#171717;stroke-width:1;"/><text fill="#000000" font-family="Times New Roman" font-size="13" lengthAdjust="spacing" textLength="80.8564" x="550.774" y="243.2246">&#1056;&#1077;&#1076;&#1072;&#1082;&#1090;&#1080;&#1088;&#1086;&#1074;&#1072;&#1090;&#1100;</text><text fill="#000000" font-family="Times New Roman" font-size="13" lengthAdjust="spacing" textLength="111.6045" x="535.4" y="258.1733">&#1080;&#1083;&#1080; &#1079;&#1072;&#1075;&#1088;&#1091;&#1079;&#1080;&#1090;&#1100; media</text></g><!--link Draft to Draft--><g class="link" data-entity-1="ent0002" data-entity-2="ent0002" data-link-type="dependency" data-source-line="23" id="lnk5"><path d="M494.82,231.1679 C568.84,227.1379 652.4,231.9479 652.4,245.5879 C652.4,259.2279 574.8312,264.3533 500.8112,260.3333" fill="none" id="Draft-to-Draft-1" style="stroke:#171717;stroke-width:1;"/><polygon fill="#171717" points="494.82,260.0079,503.5898,264.4901,499.8126,260.279,504.0237,256.5018,494.82,260.0079" style="stroke:#171717;stroke-width:1;"/><text fill="#000000" font-family="Times New Roman" font-size="13" lengthAdjust="spacing" textLength="93.3486" x="696.8446" y="243.2246">&#1054;&#1090;&#1082;&#1088;&#1099;&#1090;&#1100; preview</text><text fill="#000000" font-family="Times New Roman" font-size="13" lengthAdjust="spacing" textLength="170.2378" x="658.4" y="258.1733">&#1095;&#1077;&#1088;&#1077;&#1079; /api/preview &#1080; /preview/...</text></g><!--link Draft to Published--><g class="link" data-entity-1="ent0002" data-entity-2="ent0003" data-link-type="dependency" data-source-line="25" id="lnk6"><path d="M300.14,255.0379 C220.66,264.1879 117.34,282.0379 91.41,314.3379 C66.79,344.9979 69.695,385.2596 78.025,419.3296" fill="none" id="Draft-to-Published" style="stroke:#171717;stroke-width:1;"/><polygon fill="#171717" points="79.45,425.1579,81.198,415.4654,78.2625,420.301,73.4269,417.3654,79.45,425.1579" style="stroke:#171717;stroke-width:1;"/><text fill="#000000" font-family="Times New Roman" font-size="13" lengthAdjust="spacing" textLength="122.0654" x="161.922" y="334.9746">Publish &#1074; Strapi Admin</text><path d="M96.41,343.7866 L96.41,382.7866 L349.41,382.7866 L349.41,353.7866 L339.41,343.7866 L96.41,343.7866" fill="#F9F9F9" style="stroke:#171717;stroke-width:0.5;"/><path d="M339.41,343.7866 L339.41,353.7866 L349.41,353.7866 L339.41,343.7866" fill="#F9F9F9" style="stroke:#171717;stroke-width:0.5;"/><text fill="#000000" font-family="Times New Roman" font-size="13" lengthAdjust="spacing" textLength="182.1587" x="102.41" y="360.9233">&#1057;&#1091;&#1097;&#1085;&#1086;&#1089;&#1090;&#1100; &#1089;&#1090;&#1072;&#1085;&#1086;&#1074;&#1080;&#1090;&#1089;&#1103; &#1076;&#1086;&#1089;&#1090;&#1091;&#1087;&#1085;&#1086;&#1081;</text><text fill="#000000" font-family="Times New Roman" font-size="13" lengthAdjust="spacing" textLength="232.0894" x="102.41" y="375.8721">&#1082;&#1072;&#1082; published content &#1076;&#1083;&#1103; &#1087;&#1091;&#1073;&#1083;&#1080;&#1095;&#1085;&#1086;&#1075;&#1086; API.</text></g><!--link Published to Draft--><g class="link" data-entity-1="ent0003" data-entity-2="ent0002" data-link-type="dependency" data-source-line="38" id="lnk8"><path d="M182.26,466.8579 C239.79,460.1479 312.54,442.0879 358.41,395.3379 C387.2,365.9879 395.1104,324.1071 397.1204,290.6271" fill="none" id="Published-to-Draft" style="stroke:#171717;stroke-width:1;"/><polygon fill="#171717" points="397.48,284.6379,392.9478,293.382,397.1804,289.6289,400.9335,293.8614,397.48,284.6379" style="stroke:#171717;stroke-width:1;"/><text fill="#000000" font-family="Times New Roman" font-size="13" lengthAdjust="spacing" textLength="137.2236" x="468.7661" y="327.4746">Unpublish &#1074; Strapi Admin</text><path d="M398.56,336.2866 L398.56,390.2866 L675.56,390.2866 L675.56,346.2866 L665.56,336.2866 L398.56,336.2866" fill="#F9F9F9" style="stroke:#171717;stroke-width:0.5;"/><path d="M665.56,336.2866 L665.56,346.2866 L675.56,346.2866 L665.56,336.2866" fill="#F9F9F9" style="stroke:#171717;stroke-width:0.5;"/><text fill="#000000" font-family="Times New Roman" font-size="13" lengthAdjust="spacing" textLength="256.6357" x="404.56" y="353.4233">&#1055;&#1091;&#1073;&#1083;&#1080;&#1095;&#1085;&#1099;&#1077; GET-&#1079;&#1072;&#1087;&#1088;&#1086;&#1089;&#1099; &#1087;&#1077;&#1088;&#1077;&#1089;&#1090;&#1072;&#1102;&#1090; &#1087;&#1086;&#1083;&#1091;&#1095;&#1072;&#1090;&#1100;</text><text fill="#000000" font-family="Times New Roman" font-size="13" lengthAdjust="spacing" textLength="228.8965" x="404.56" y="368.3721">&#1101;&#1090;&#1091; &#1079;&#1072;&#1087;&#1080;&#1089;&#1100;, &#1072; &#1095;&#1077;&#1088;&#1085;&#1086;&#1074;&#1080;&#1082; &#1086;&#1089;&#1090;&#1072;&#1077;&#1090;&#1089;&#1103; &#1076;&#1086;&#1089;&#1090;&#1091;&#1087;&#1077;&#1085;</text><text fill="#000000" font-family="Times New Roman" font-size="13" lengthAdjust="spacing" textLength="161.5288" x="404.56" y="383.3208">&#1090;&#1086;&#1083;&#1100;&#1082;&#1086; &#1095;&#1077;&#1088;&#1077;&#1079; preview-&#1082;&#1086;&#1085;&#1090;&#1091;&#1088;.</text></g><!--link Published to Published--><g class="link" data-entity-1="ent0003" data-entity-2="ent0003" data-link-type="dependency" data-source-line="31" id="lnk7"><path d="M182.16,455.6579 C202.16,457.0079 216.82,462.1179 216.82,470.9779 C216.82,479.8479 208.1464,484.5438 188.1464,485.8938" fill="none" id="Published-to-Published" style="stroke:#171717;stroke-width:1;"/><polygon fill="#171717" points="182.16,486.2979,191.409,489.6827,187.1486,485.9612,190.8702,481.7009,182.16,486.2979" style="stroke:#171717;stroke-width:1;"/><text fill="#000000" font-family="Times New Roman" font-size="13" lengthAdjust="spacing" textLength="218.7402" x="261.3256" y="443.6146">&#1056;&#1077;&#1076;&#1072;&#1082;&#1090;&#1080;&#1088;&#1086;&#1074;&#1072;&#1090;&#1100; &#1086;&#1087;&#1091;&#1073;&#1083;&#1080;&#1082;&#1086;&#1074;&#1072;&#1085;&#1085;&#1091;&#1102; &#1079;&#1072;&#1087;&#1080;&#1089;&#1100;</text><path d="M221.82,457.4266 L221.82,511.4266 L518.82,511.4266 L518.82,467.4266 L508.82,457.4266 L221.82,457.4266" fill="#F9F9F9" style="stroke:#171717;stroke-width:0.5;"/><path d="M508.82,457.4266 L508.82,467.4266 L518.82,467.4266 L508.82,457.4266" fill="#F9F9F9" style="stroke:#171717;stroke-width:0.5;"/><text fill="#000000" font-family="Times New Roman" font-size="13" lengthAdjust="spacing" textLength="207.5366" x="227.82" y="474.5633">&#1054;&#1073;&#1085;&#1086;&#1074;&#1083;&#1077;&#1085;&#1085;&#1072;&#1103; &#1086;&#1087;&#1091;&#1073;&#1083;&#1080;&#1082;&#1086;&#1074;&#1072;&#1085;&#1085;&#1072;&#1103; &#1074;&#1077;&#1088;&#1089;&#1080;&#1103;</text><text fill="#000000" font-family="Times New Roman" font-size="13" lengthAdjust="spacing" textLength="218.9878" x="227.82" y="489.5121">&#1095;&#1080;&#1090;&#1072;&#1077;&#1090;&#1089;&#1103; API &#1089;&#1088;&#1072;&#1079;&#1091;, &#1072; public static routes</text><text fill="#000000" font-family="Times New Roman" font-size="13" lengthAdjust="spacing" textLength="276.7515" x="227.82" y="504.4608">&#1087;&#1086;&#1076;&#1093;&#1074;&#1072;&#1090;&#1099;&#1074;&#1072;&#1102;&#1090; &#1077;&#1077; &#1087;&#1088;&#1080; &#1089;&#1083;&#1077;&#1076;&#1091;&#1102;&#1097;&#1077;&#1081; &#1089;&#1073;&#1086;&#1088;&#1082;&#1077; frontend.</text></g><!--link Draft to Deleted--><g class="link" data-entity-1="ent0002" data-entity-2="ent0004" data-link-type="dependency" data-source-line="45" id="lnk9"><path d="M494.65,249.8679 C555.47,256.2979 632.58,272.9179 688.41,314.3379 C734.14,348.2579 737.69,370.3279 752.41,425.3379 C762.9,464.5279 776.18,483.7479 752.41,516.6279 C693.99,597.4279 573.9154,613.8122 504.2154,616.5522" fill="none" id="Draft-to-Deleted" style="stroke:#171717;stroke-width:1;"/><polygon fill="#171717" points="498.22,616.7879,507.3702,620.4313,503.2161,616.5915,507.0559,612.4374,498.22,616.7879" style="stroke:#171717;stroke-width:1;"/><text fill="#000000" font-family="Times New Roman" font-size="13" lengthAdjust="spacing" textLength="33.9219" x="766.71" y="476.1146">Delete</text></g><!--link Published to Deleted--><g class="link" data-entity-1="ent0003" data-entity-2="ent0004" data-link-type="dependency" data-source-line="46" id="lnk10"><path d="M182.16,507.7379 C250.94,535.7579 338.5734,571.4641 394.7834,594.3641" fill="none" id="Published-to-Deleted" style="stroke:#171717;stroke-width:1;"/><polygon fill="#171717" points="400.34,596.6279,393.5143,589.5279,395.7095,594.7414,390.496,596.9366,400.34,596.6279" style="stroke:#171717;stroke-width:1;"/><text fill="#000000" font-family="Times New Roman" font-size="13" lengthAdjust="spacing" textLength="33.9219" x="315.14" y="559.7646">Delete</text></g><!--link Deleted to *end*--><g class="link" data-entity-1="ent0004" data-entity-2="ent0011" data-link-type="dependency" data-source-line="47" id="lnk12"><path d="M449.41,643.0879 C449.41,662.6679 449.41,683.1179 449.41,697.4279" fill="none" id="Deleted-to-*end*" style="stroke:#171717;stroke-width:1;"/><polygon fill="#171717" points="449.41,703.4279,453.41,694.4279,449.41,698.4279,445.41,694.4279,449.41,703.4279" style="stroke:#171717;stroke-width:1;"/></g></g></svg>