<?plantuml 1.2026.2?><svg xmlns="http://www.w3.org/2000/svg" xmlns:xlink="http://www.w3.org/1999/xlink" contentStyleType="text/css" data-diagram-type="CLASS" height="800px" preserveAspectRatio="none" style="width:2126px;height:800px;background:#FFFFFF;" version="1.1" viewBox="0 0 2126 800" width="2126px" zoomAndPan="magnify"><title>&#1044;&#1080;&#1072;&#1075;&#1088;&#1072;&#1084;&#1084;&#1072; &#1084;&#1086;&#1076;&#1077;&#1083;&#1080; &#1076;&#1072;&#1085;&#1085;&#1099;&#1093; CMS
&#1055;&#1086;&#1076;&#1090;&#1074;&#1077;&#1088;&#1078;&#1076;&#1077;&#1085;&#1085;&#1099;&#1077; &#1089;&#1091;&#1097;&#1085;&#1086;&#1089;&#1090;&#1080; &#1080; &#1089;&#1074;&#1103;&#1079;&#1080;</title><defs/><g><rect fill="#F9F9F9" height="26.6406" rx="2.5" ry="2.5" style="stroke:#DDDDDD;stroke-width:3;" width="2115.5037" x="5" y="5"/><text fill="#000000" font-family="monospace" font-size="10" lengthAdjust="spacing" textLength="355.21" x="10" y="20">Please&#160;use&#160;'!option&#160;handwritten&#160;true'&#160;to&#160;enable&#160;handwritten</text><g class="title" data-source-line="2"><text fill="#000000" font-family="Times New Roman" font-size="14" font-weight="bold" lengthAdjust="spacing" textLength="207.4229" x="945.0404" y="59.7109">&#1044;&#1080;&#1072;&#1075;&#1088;&#1072;&#1084;&#1084;&#1072; &#1084;&#1086;&#1076;&#1077;&#1083;&#1080; &#1076;&#1072;&#1085;&#1085;&#1099;&#1093; CMS</text><text fill="#000000" font-family="Times New Roman" font-size="14" font-weight="bold" lengthAdjust="spacing" textLength="224.998" x="936.2528" y="75.8096">&#1055;&#1086;&#1076;&#1090;&#1074;&#1077;&#1088;&#1078;&#1076;&#1077;&#1085;&#1085;&#1099;&#1077; &#1089;&#1091;&#1097;&#1085;&#1086;&#1089;&#1090;&#1080; &#1080; &#1089;&#1074;&#1103;&#1079;&#1080;</text></g><!--class LocalizedDraftEntity--><g class="entity" data-qualified-name="LocalizedDraftEntity" data-source-line="7" id="ent0002"><rect fill="#F1F1F1" height="90.3945" rx="2.5" ry="2.5" style="stroke:#171717;stroke-width:0.5;" width="150.1406" x="839.62" y="145.1379"/><text fill="#171717" font-family="Times New Roman" font-size="14" font-style="italic" lengthAdjust="spacing" textLength="118.2139" x="855.5834" y="163.2082">LocalizedDraftEntity</text><line style="stroke:#171717;stroke-width:0.5;" x1="840.62" x2="988.7606" y1="171.2365" y2="171.2365"/><text fill="#000000" font-family="Times New Roman" font-size="14" lengthAdjust="spacing" textLength="114.0439" x="845.62" y="188.3068">+documentId: string</text><text fill="#000000" font-family="Times New Roman" font-size="14" lengthAdjust="spacing" textLength="80.5957" x="845.62" y="204.4055">+locale: string</text><text fill="#000000" font-family="Times New Roman" font-size="14" lengthAdjust="spacing" textLength="138.1406" x="845.62" y="220.5041">+publishedAt: datetime?</text><line style="stroke:#171717;stroke-width:0.5;" x1="840.62" x2="988.7606" y1="227.5324" y2="227.5324"/></g><!--class Page--><g class="entity" data-qualified-name="Page" data-source-line="13" id="ent0003"><rect fill="#F1F1F1" height="74.2959" rx="2.5" ry="2.5" style="stroke:#171717;stroke-width:0.5;" width="80.9473" x="263.22" y="432.2679"/><text fill="#171717" font-family="Times New Roman" font-size="14" lengthAdjust="spacing" textLength="27.2139" x="290.0867" y="450.3382">Page</text><line style="stroke:#171717;stroke-width:0.5;" x1="264.22" x2="343.1673" y1="458.3665" y2="458.3665"/><text fill="#000000" font-family="Times New Roman" font-size="14" lengthAdjust="spacing" textLength="68.9473" x="269.22" y="475.4368">+title: string</text><text fill="#000000" font-family="Times New Roman" font-size="14" lengthAdjust="spacing" textLength="56.5127" x="269.22" y="491.5355">+slug: uid</text><line style="stroke:#171717;stroke-width:0.5;" x1="264.22" x2="343.1673" y1="498.5638" y2="498.5638"/></g><!--class HomePage--><g class="entity" data-qualified-name="HomePage" data-source-line="18" id="ent0004"><rect fill="#F1F1F1" height="74.2959" rx="2.5" ry="2.5" style="stroke:#171717;stroke-width:0.5;" width="110.4854" x="379.45" y="432.2679"/><text fill="#171717" font-family="Times New Roman" font-size="14" lengthAdjust="spacing" textLength="61.4277" x="403.9788" y="450.3382">HomePage</text><line style="stroke:#171717;stroke-width:0.5;" x1="380.45" x2="488.9354" y1="458.3665" y2="458.3665"/><text fill="#000000" font-family="Times New Roman" font-size="14" lengthAdjust="spacing" textLength="68.9268" x="385.45" y="475.4368">+Title: text?</text><text fill="#000000" font-family="Times New Roman" font-size="14" lengthAdjust="spacing" textLength="98.4854" x="385.45" y="491.5355">+description: text</text><line style="stroke:#171717;stroke-width:0.5;" x1="380.45" x2="488.9354" y1="498.5638" y2="498.5638"/></g><!--class Global--><g class="entity" data-qualified-name="Global" data-source-line="23" id="ent0005"><rect fill="#F1F1F1" height="154.7891" rx="2.5" ry="2.5" style="stroke:#171717;stroke-width:0.5;" width="211.541" x="1508.92" y="392.0179"/><text fill="#171717" font-family="Times New Roman" font-size="14" lengthAdjust="spacing" textLength="38.1035" x="1595.6388" y="410.0882">Global</text><line style="stroke:#171717;stroke-width:0.5;" x1="1509.92" x2="1719.461" y1="418.1165" y2="418.1165"/><text fill="#000000" font-family="Times New Roman" font-size="14" lengthAdjust="spacing" textLength="131.9199" x="1514.92" y="435.1868">+companyName: string</text><text fill="#000000" font-family="Times New Roman" font-size="14" lengthAdjust="spacing" textLength="98.4854" x="1514.92" y="451.2855">+description: text</text><text fill="#000000" font-family="Times New Roman" font-size="14" lengthAdjust="spacing" textLength="177.0166" x="1514.92" y="467.3841">+navigationItems: component[]</text><text fill="#000000" font-family="Times New Roman" font-size="14" lengthAdjust="spacing" textLength="185.5547" x="1514.92" y="483.4827">+headerPrimaryCta: component?</text><text fill="#000000" font-family="Times New Roman" font-size="14" lengthAdjust="spacing" textLength="199.541" x="1514.92" y="499.5814">+headerSecondaryCta: component?</text><text fill="#000000" font-family="Times New Roman" font-size="14" lengthAdjust="spacing" textLength="170.8096" x="1514.92" y="515.68">+footerColumns: component[]</text><text fill="#000000" font-family="Times New Roman" font-size="14" lengthAdjust="spacing" textLength="143.5957" x="1514.92" y="531.7786">+footerCopyright: string?</text><line style="stroke:#171717;stroke-width:0.5;" x1="1509.92" x2="1719.461" y1="538.807" y2="538.807"/></g><!--class SharedSeo--><g class="entity" data-qualified-name="SharedSeo" data-source-line="33" id="ent0006"><rect fill="#F1F1F1" height="138.6904" rx="2.5" ry="2.5" style="stroke:#171717;stroke-width:0.5;" width="147.0234" x="431.18" y="655.0079"/><text fill="#171717" font-family="Times New Roman" font-size="14" lengthAdjust="spacing" textLength="59.876" x="474.7537" y="673.0782">SharedSeo</text><line style="stroke:#171717;stroke-width:0.5;" x1="432.18" x2="577.2034" y1="681.1065" y2="681.1065"/><text fill="#000000" font-family="Times New Roman" font-size="14" lengthAdjust="spacing" textLength="100.8164" x="437.18" y="698.1768">+metaTitle: string</text><text fill="#000000" font-family="Times New Roman" font-size="14" lengthAdjust="spacing" textLength="128.8027" x="437.18" y="714.2755">+metaDescription: text</text><text fill="#000000" font-family="Times New Roman" font-size="14" lengthAdjust="spacing" textLength="135.0234" x="437.18" y="730.3741">+canonicalURL: string?</text><text fill="#000000" font-family="Times New Roman" font-size="14" lengthAdjust="spacing" textLength="93.8232" x="437.18" y="746.4727">+ogTitle: string?</text><text fill="#000000" font-family="Times New Roman" font-size="14" lengthAdjust="spacing" textLength="121.8096" x="437.18" y="762.5714">+ogDescription: text?</text><text fill="#000000" font-family="Times New Roman" font-size="14" lengthAdjust="spacing" textLength="111.6924" x="437.18" y="778.67">+noIndex: boolean?</text><line style="stroke:#171717;stroke-width:0.5;" x1="432.18" x2="577.2034" y1="785.6983" y2="785.6983"/></g><!--class PageBlock--><g class="entity" data-qualified-name="PageBlock" data-source-line="42" id="ent0007"><rect fill="#F1F1F1" height="58.1973" rx="2.5" ry="2.5" style="stroke:#171717;stroke-width:0.5;" width="135.3818" x="7" y="695.2579"/><text fill="#171717" font-family="Times New Roman" font-size="14" lengthAdjust="spacing" textLength="60.6553" x="44.3633" y="713.3282">PageBlock</text><line style="stroke:#171717;stroke-width:0.5;" x1="8" x2="141.3818" y1="721.3565" y2="721.3565"/><text fill="#000000" font-family="Times New Roman" font-size="14" lengthAdjust="spacing" textLength="123.3818" x="13" y="738.4268">+__component: string</text><line style="stroke:#171717;stroke-width:0.5;" x1="8" x2="141.3818" y1="745.4552" y2="745.4552"/></g><!--class Article--><g class="entity" data-qualified-name="Article" data-source-line="46" id="ent0008"><rect fill="#F1F1F1" height="122.5918" rx="2.5" ry="2.5" style="stroke:#171717;stroke-width:0.5;" width="117.4648" x="1203.96" y="408.1179"/><text fill="#171717" font-family="Times New Roman" font-size="14" lengthAdjust="spacing" textLength="38.8691" x="1243.2579" y="426.1882">Article</text><line style="stroke:#171717;stroke-width:0.5;" x1="1204.96" x2="1320.4248" y1="434.2165" y2="434.2165"/><text fill="#000000" font-family="Times New Roman" font-size="14" lengthAdjust="spacing" textLength="66.5957" x="1209.96" y="451.2868">+name: text</text><text fill="#000000" font-family="Times New Roman" font-size="14" lengthAdjust="spacing" textLength="98.4854" x="1209.96" y="467.3855">+description: text</text><text fill="#000000" font-family="Times New Roman" font-size="14" lengthAdjust="spacing" textLength="56.5127" x="1209.96" y="483.4841">+slug: uid</text><text fill="#000000" font-family="Times New Roman" font-size="14" lengthAdjust="spacing" textLength="68.1338" x="1209.96" y="499.5827">+date: date?</text><text fill="#000000" font-family="Times New Roman" font-size="14" lengthAdjust="spacing" textLength="105.4648" x="1209.96" y="515.6814">+content: richtext?</text><line style="stroke:#171717;stroke-width:0.5;" x1="1204.96" x2="1320.4248" y1="522.7097" y2="522.7097"/></g><!--class Author--><g class="entity" data-qualified-name="Author" data-source-line="54" id="ent0009"><rect fill="#F1F1F1" height="74.2959" rx="2.5" ry="2.5" style="stroke:#171717;stroke-width:0.5;" width="115.1543" x="1136.11" y="687.2079"/><text fill="#171717" font-family="Times New Roman" font-size="14" lengthAdjust="spacing" textLength="39.6621" x="1173.8561" y="705.2782">Author</text><line style="stroke:#171717;stroke-width:0.5;" x1="1137.11" x2="1250.2643" y1="713.3065" y2="713.3065"/><text fill="#000000" font-family="Times New Roman" font-size="14" lengthAdjust="spacing" textLength="103.1543" x="1142.11" y="730.3768">+firstName: string</text><text fill="#000000" font-family="Times New Roman" font-size="14" lengthAdjust="spacing" textLength="100.0439" x="1142.11" y="746.4755">+lastName: string</text><line style="stroke:#171717;stroke-width:0.5;" x1="1137.11" x2="1250.2643" y1="753.5038" y2="753.5038"/></g><!--class Project--><g class="entity" data-qualified-name="Project" data-source-line="59" id="ent0010"><rect fill="#F1F1F1" height="122.5918" rx="2.5" ry="2.5" style="stroke:#171717;stroke-width:0.5;" width="117.4648" x="1355.96" y="408.1179"/><text fill="#171717" font-family="Times New Roman" font-size="14" lengthAdjust="spacing" textLength="39.6553" x="1394.8648" y="426.1882">Project</text><line style="stroke:#171717;stroke-width:0.5;" x1="1356.96" x2="1472.4248" y1="434.2165" y2="434.2165"/><text fill="#000000" font-family="Times New Roman" font-size="14" lengthAdjust="spacing" textLength="66.5957" x="1361.96" y="451.2868">+name: text</text><text fill="#000000" font-family="Times New Roman" font-size="14" lengthAdjust="spacing" textLength="98.4854" x="1361.96" y="467.3855">+description: text</text><text fill="#000000" font-family="Times New Roman" font-size="14" lengthAdjust="spacing" textLength="56.5127" x="1361.96" y="483.4841">+slug: uid</text><text fill="#000000" font-family="Times New Roman" font-size="14" lengthAdjust="spacing" textLength="68.1338" x="1361.96" y="499.5827">+date: date?</text><text fill="#000000" font-family="Times New Roman" font-size="14" lengthAdjust="spacing" textLength="105.4648" x="1361.96" y="515.6814">+content: richtext?</text><line style="stroke:#171717;stroke-width:0.5;" x1="1356.96" x2="1472.4248" y1="522.7097" y2="522.7097"/></g><!--class Vacancy--><g class="entity" data-qualified-name="Vacancy" data-source-line="67" id="ent0011"><rect fill="#F1F1F1" height="219.1836" rx="2.5" ry="2.5" style="stroke:#171717;stroke-width:0.5;" width="163.3545" x="934.01" y="359.8279"/><text fill="#171717" font-family="Times New Roman" font-size="14" lengthAdjust="spacing" textLength="48.9658" x="991.2043" y="377.8982">Vacancy</text><line style="stroke:#171717;stroke-width:0.5;" x1="935.01" x2="1096.3645" y1="385.9265" y2="385.9265"/><text fill="#000000" font-family="Times New Roman" font-size="14" lengthAdjust="spacing" textLength="68.9473" x="940.01" y="402.9968">+title: string</text><text fill="#000000" font-family="Times New Roman" font-size="14" lengthAdjust="spacing" textLength="56.5127" x="940.01" y="419.0955">+slug: uid</text><text fill="#000000" font-family="Times New Roman" font-size="14" lengthAdjust="spacing" textLength="98.4854" x="940.01" y="435.1941">+location: string?</text><text fill="#000000" font-family="Times New Roman" font-size="14" lengthAdjust="spacing" textLength="115.6025" x="940.01" y="451.2927">+workFormat: enum</text><text fill="#000000" font-family="Times New Roman" font-size="14" lengthAdjust="spacing" textLength="151.3545" x="940.01" y="467.3914">+employmentType: enum?</text><text fill="#000000" font-family="Times New Roman" font-size="14" lengthAdjust="spacing" textLength="79.8096" x="940.01" y="483.49">+level: enum?</text><text fill="#000000" font-family="Times New Roman" font-size="14" lengthAdjust="spacing" textLength="124.1338" x="940.01" y="499.5886">+salaryFrom: integer?</text><text fill="#000000" font-family="Times New Roman" font-size="14" lengthAdjust="spacing" textLength="109.3477" x="940.01" y="515.6873">+salaryTo: integer?</text><text fill="#000000" font-family="Times New Roman" font-size="14" lengthAdjust="spacing" textLength="101.5684" x="940.01" y="531.7859">+currency: enum?</text><text fill="#000000" font-family="Times New Roman" font-size="14" lengthAdjust="spacing" textLength="126.4648" x="940.01" y="547.8845">+description: richtext?</text><text fill="#000000" font-family="Times New Roman" font-size="14" lengthAdjust="spacing" textLength="112.4717" x="940.01" y="563.9832">+isActive: boolean?</text><line style="stroke:#171717;stroke-width:0.5;" x1="935.01" x2="1096.3645" y1="571.0115" y2="571.0115"/></g><!--class VacancyApplication--><g class="entity" data-qualified-name="VacancyApplication" data-source-line="81" id="ent0012"><rect fill="#F1F1F1" height="186.9863" rx="2.5" ry="2.5" style="stroke:#171717;stroke-width:0.5;" width="150.9199" x="1798.23" y="96.8379"/><text fill="#171717" font-family="Times New Roman" font-size="14" lengthAdjust="spacing" textLength="115.0625" x="1816.1587" y="114.9082">VacancyApplication</text><line style="stroke:#171717;stroke-width:0.5;" x1="1799.23" x2="1948.1499" y1="122.9365" y2="122.9365"/><text fill="#000000" font-family="Times New Roman" font-size="14" lengthAdjust="spacing" textLength="100.0439" x="1804.23" y="140.0068">+fullName: string</text><text fill="#000000" font-family="Times New Roman" font-size="14" lengthAdjust="spacing" textLength="77.4785" x="1804.23" y="156.1055">+email: email</text><text fill="#000000" font-family="Times New Roman" font-size="14" lengthAdjust="spacing" textLength="81.3887" x="1804.23" y="172.2041">+phone: string</text><text fill="#000000" font-family="Times New Roman" font-size="14" lengthAdjust="spacing" textLength="74.3818" x="1804.23" y="188.3027">+city: string?</text><text fill="#000000" font-family="Times New Roman" font-size="14" lengthAdjust="spacing" textLength="107.0029" x="1804.23" y="204.4014">+coverLetter: text?</text><text fill="#000000" font-family="Times New Roman" font-size="14" lengthAdjust="spacing" textLength="102.3682" x="1804.23" y="220.5">+consent: boolean</text><text fill="#000000" font-family="Times New Roman" font-size="14" lengthAdjust="spacing" textLength="92.2783" x="1804.23" y="236.5986">+hrStatus: enum</text><text fill="#000000" font-family="Times New Roman" font-size="14" lengthAdjust="spacing" textLength="138.9199" x="1804.23" y="252.6973">+submittedAt: datetime?</text><text fill="#000000" font-family="Times New Roman" font-size="14" lengthAdjust="spacing" textLength="89.9268" x="1804.23" y="268.7959">+source: string?</text><line style="stroke:#171717;stroke-width:0.5;" x1="1799.23" x2="1948.1499" y1="275.8242" y2="275.8242"/></g><!--class Industry--><g class="entity" data-qualified-name="Industry" data-source-line="93" id="ent0013"><rect fill="#F1F1F1" height="74.2959" rx="2.5" ry="2.5" style="stroke:#171717;stroke-width:0.5;" width="89.4922" x="753.94" y="687.2079"/><text fill="#171717" font-family="Times New Roman" font-size="14" lengthAdjust="spacing" textLength="46.6621" x="775.355" y="705.2782">Industry</text><line style="stroke:#171717;stroke-width:0.5;" x1="754.94" x2="842.4322" y1="713.3065" y2="713.3065"/><text fill="#000000" font-family="Times New Roman" font-size="14" lengthAdjust="spacing" textLength="77.4922" x="759.94" y="730.3768">+name: string</text><text fill="#000000" font-family="Times New Roman" font-size="14" lengthAdjust="spacing" textLength="56.5127" x="759.94" y="746.4755">+slug: uid</text><line style="stroke:#171717;stroke-width:0.5;" x1="754.94" x2="842.4322" y1="753.5038" y2="753.5038"/></g><!--class JobRole--><g class="entity" data-qualified-name="JobRole" data-source-line="98" id="ent0014"><rect fill="#F1F1F1" height="74.2959" rx="2.5" ry="2.5" style="stroke:#171717;stroke-width:0.5;" width="89.4922" x="910.94" y="687.2079"/><text fill="#171717" font-family="Times New Roman" font-size="14" lengthAdjust="spacing" textLength="45.8896" x="932.7413" y="705.2782">JobRole</text><line style="stroke:#171717;stroke-width:0.5;" x1="911.94" x2="999.4322" y1="713.3065" y2="713.3065"/><text fill="#000000" font-family="Times New Roman" font-size="14" lengthAdjust="spacing" textLength="77.4922" x="916.94" y="730.3768">+name: string</text><text fill="#000000" font-family="Times New Roman" font-size="14" lengthAdjust="spacing" textLength="56.5127" x="916.94" y="746.4755">+slug: uid</text><line style="stroke:#171717;stroke-width:0.5;" x1="911.94" x2="999.4322" y1="753.5038" y2="753.5038"/></g><!--class UploadFile--><g class="entity" data-qualified-name="UploadFile" data-source-line="103" id="ent0015"><rect fill="#F1F1F1" height="90.3945" rx="2.5" ry="2.5" style="stroke:#171717;stroke-width:0.5;" width="91.8164" x="1433.78" y="679.1579"/><text fill="#171717" font-family="Times New Roman" font-size="14" lengthAdjust="spacing" textLength="62.9932" x="1448.1916" y="697.2282">UploadFile</text><line style="stroke:#171717;stroke-width:0.5;" x1="1434.78" x2="1524.5964" y1="705.2565" y2="705.2565"/><text fill="#000000" font-family="Times New Roman" font-size="14" lengthAdjust="spacing" textLength="62.7266" x="1439.78" y="722.3268">+url: string</text><text fill="#000000" font-family="Times New Roman" font-size="14" lengthAdjust="spacing" textLength="79.0576" x="1439.78" y="738.4255">+mime: string</text><text fill="#000000" font-family="Times New Roman" font-size="14" lengthAdjust="spacing" textLength="79.8164" x="1439.78" y="754.5241">+size: number</text><line style="stroke:#171717;stroke-width:0.5;" x1="1434.78" x2="1524.5964" y1="761.5524" y2="761.5524"/></g><g class="entity" data-qualified-name="GMN38" data-source-line="136" id="ent0039"><path d="M177.44,674.5079 L177.44,720.3479 L142.6,724.3479 L177.44,728.3479 L177.44,774.2003 A0,0 0 0 0 177.44,774.2003 L395.9346,774.2003 A0,0 0 0 0 395.9346,774.2003 L395.9346,684.5079 L385.9346,674.5079 L177.44,674.5079 A0,0 0 0 0 177.44,674.5079" fill="#F9F9F9" style="stroke:#171717;stroke-width:0.5;"/><path d="M385.9346,674.5079 L385.9346,684.5079 L395.9346,684.5079 L385.9346,674.5079" fill="#F9F9F9" style="stroke:#171717;stroke-width:0.5;"/><text fill="#000000" font-family="Times New Roman" font-size="13" lengthAdjust="spacing" textLength="178.7056" x="183.44" y="691.6446">Dynamic Zone currently supports:</text><text fill="#000000" font-family="Times New Roman" font-size="13" lengthAdjust="spacing" textLength="172.8721" x="183.44" y="706.5933">hero, rich-text, feature-cards, cta,</text><text fill="#000000" font-family="Times New Roman" font-size="13" lengthAdjust="spacing" textLength="197.4946" x="183.44" y="721.5421">preview-list, logo-cloud, testimonials,</text><text fill="#000000" font-family="Times New Roman" font-size="13" lengthAdjust="spacing" textLength="143.3174" x="183.44" y="736.4908">stats, feature-highlight, faq,</text><text fill="#000000" font-family="Times New Roman" font-size="13" lengthAdjust="spacing" textLength="177.252" x="183.44" y="751.4395">process-timeline, quote, checklist,</text><text fill="#000000" font-family="Times New Roman" font-size="13" lengthAdjust="spacing" textLength="181.2383" x="183.44" y="766.3883">content-columns, numbered-points</text></g><g class="entity" data-qualified-name="GMN41" data-source-line="145" id="ent0042"><path d="M595.95,449.4679 L595.95,489.3654 A0,0 0 0 0 595.95,489.3654 L827.4319,489.3654 A0,0 0 0 0 827.4319,489.3654 L827.4319,459.4679 L817.4319,449.4679 L729.91,449.4679 L882.08,235.8479 L721.91,449.4679 L595.95,449.4679 A0,0 0 0 0 595.95,449.4679" fill="#F9F9F9" style="stroke:#171717;stroke-width:0.5;"/><path d="M817.4319,449.4679 L817.4319,459.4679 L827.4319,459.4679 L817.4319,449.4679" fill="#F9F9F9" style="stroke:#171717;stroke-width:0.5;"/><text fill="#000000" font-family="Times New Roman" font-size="13" lengthAdjust="spacing" textLength="210.4819" x="601.95" y="466.6046">These entities use i18n and draft/publish</text><text fill="#000000" font-family="Times New Roman" font-size="13" lengthAdjust="spacing" textLength="142.6001" x="601.95" y="481.5533">in the current Strapi model.</text></g><g class="entity" data-qualified-name="GMN44" data-source-line="150" id="ent0045"><path d="M1755.45,449.4679 L1755.45,489.3654 A0,0 0 0 0 1755.45,489.3654 L1991.9402,489.3654 A0,0 0 0 0 1991.9402,489.3654 L1991.9402,459.4679 L1981.9402,449.4679 L1877.69,449.4679 L1873.69,283.9779 L1869.69,449.4679 L1755.45,449.4679 A0,0 0 0 0 1755.45,449.4679" fill="#F9F9F9" style="stroke:#171717;stroke-width:0.5;"/><path d="M1981.9402,449.4679 L1981.9402,459.4679 L1991.9402,459.4679 L1981.9402,449.4679" fill="#F9F9F9" style="stroke:#171717;stroke-width:0.5;"/><text fill="#000000" font-family="Times New Roman" font-size="13" lengthAdjust="spacing" textLength="215.4902" x="1761.45" y="466.6046">Vacancy application is an applied record:</text><text fill="#000000" font-family="Times New Roman" font-size="13" lengthAdjust="spacing" textLength="188.1191" x="1761.45" y="481.5533">it does not use i18n or draft/publish.</text></g><!--reverse link LocalizedDraftEntity to Page--><g class="link" data-entity-1="ent0002" data-entity-2="ent0003" data-link-type="extension" data-source-line="109" id="lnk16"><path codeLine="109" d="M821.5796,197.1088 C706.0096,207.2988 501.38,240.5779 361.69,359.8279 C339.5,378.7679 324.49,408.3779 315.3,431.8979" fill="none" id="LocalizedDraftEntity-backto-Page" style="stroke:#171717;stroke-width:1;"/><polygon fill="none" points="839.51,195.5279,821.0526,191.132,822.1065,203.0857,839.51,195.5279" style="stroke:#171717;stroke-width:1;"/></g><!--reverse link LocalizedDraftEntity to HomePage--><g class="link" data-entity-1="ent0002" data-entity-2="ent0004" data-link-type="extension" data-source-line="110" id="lnk17"><path codeLine="110" d="M821.6398,199.4754 C734.9998,209.9354 610.44,236.3179 516.69,313.8279 C479.46,344.6079 456.85,396.7879 445.05,431.9079" fill="none" id="LocalizedDraftEntity-backto-HomePage" style="stroke:#171717;stroke-width:1;"/><polygon fill="none" points="839.51,197.3179,820.9206,193.5186,822.3589,205.4321,839.51,197.3179" style="stroke:#171717;stroke-width:1;"/></g><!--reverse link LocalizedDraftEntity to Global--><g class="link" data-entity-1="ent0002" data-entity-2="ent0005" data-link-type="extension" data-source-line="111" id="lnk18"><path codeLine="111" d="M1007.7947,205.6589 C1121.8047,225.0689 1324.68,268.7179 1490.69,359.8279 C1506.75,368.6379 1522.52,379.8279 1537.16,391.6579" fill="none" id="LocalizedDraftEntity-backto-Global" style="stroke:#171717;stroke-width:1;"/><polygon fill="none" points="990.05,202.6379,1006.7877,211.5738,1008.8017,199.744,990.05,202.6379" style="stroke:#171717;stroke-width:1;"/></g><!--reverse link LocalizedDraftEntity to Article--><g class="link" data-entity-1="ent0002" data-entity-2="ent0008" data-link-type="extension" data-source-line="112" id="lnk19"><path codeLine="112" d="M1007.0642,218.2761 C1063.7842,237.3161 1123.52,264.2679 1176.69,313.8279 C1204.44,339.6879 1225.43,376.5679 1239.72,407.8279" fill="none" id="LocalizedDraftEntity-backto-Article" style="stroke:#171717;stroke-width:1;"/><polygon fill="none" points="990,212.5479,1005.1548,223.9642,1008.9736,212.588,990,212.5479" style="stroke:#171717;stroke-width:1;"/></g><!--reverse link LocalizedDraftEntity to Author--><g class="link" data-entity-1="ent0002" data-entity-2="ent0009" data-link-type="extension" data-source-line="113" id="lnk20"><path codeLine="113" d="M1003.5505,246.0532 C1046.7705,275.8432 1083.88,308.6879 1114.69,359.8279 C1178.78,466.1679 1191.16,617.8079 1193.36,686.7379" fill="none" id="LocalizedDraftEntity-backto-Author" style="stroke:#171717;stroke-width:1;"/><polygon fill="none" points="988.73,235.8379,1000.1454,250.9933,1006.9556,241.113,988.73,235.8379" style="stroke:#171717;stroke-width:1;"/></g><!--reverse link LocalizedDraftEntity to Project--><g class="link" data-entity-1="ent0002" data-entity-2="ent0010" data-link-type="extension" data-source-line="114" id="lnk21"><path codeLine="114" d="M1007.4274,211.4828 C1097.7974,233.5228 1232.92,276.1679 1338.69,359.8279 C1355.2,372.8879 1369.62,390.4879 1381.33,407.7079" fill="none" id="LocalizedDraftEntity-backto-Project" style="stroke:#171717;stroke-width:1;"/><polygon fill="none" points="989.94,207.2179,1006.0058,217.312,1008.8491,205.6537,989.94,207.2179" style="stroke:#171717;stroke-width:1;"/></g><!--reverse link LocalizedDraftEntity to Vacancy--><g class="link" data-entity-1="ent0002" data-entity-2="ent0011" data-link-type="extension" data-source-line="115" id="lnk22"><path codeLine="115" d="M937.0816,252.7605 C949.2316,286.1105 960.25,316.3079 975.96,359.4179" fill="none" id="LocalizedDraftEntity-backto-Vacancy" style="stroke:#171717;stroke-width:1;"/><polygon fill="none" points="930.92,235.8479,931.444,254.8143,942.7191,250.7066,930.92,235.8479" style="stroke:#171717;stroke-width:1;"/></g><!--reverse link LocalizedDraftEntity to Industry--><g class="link" data-entity-1="ent0002" data-entity-2="ent0013" data-link-type="extension" data-source-line="116" id="lnk23"><path codeLine="116" d="M821.807,209.4485 C741.347,228.7585 635.33,268.0579 578.69,359.8279 C527.53,442.7179 532.41,493.2879 578.69,579.0079 C615.69,647.5479 701,688.8179 753.85,708.7379" fill="none" id="LocalizedDraftEntity-backto-Industry" style="stroke:#171717;stroke-width:1;"/><polygon fill="none" points="839.31,205.2479,820.4068,203.6142,823.2072,215.2829,839.31,205.2479" style="stroke:#171717;stroke-width:1;"/></g><!--reverse link LocalizedDraftEntity to JobRole--><g class="link" data-entity-1="ent0002" data-entity-2="ent0014" data-link-type="extension" data-source-line="117" id="lnk24"><path codeLine="117" d="M902.3877,253.6071 C887.9077,333.1871 867.77,486.6179 902.69,625.0079 C908.19,646.8179 919.59,669.0579 930.41,686.8579" fill="none" id="LocalizedDraftEntity-backto-JobRole" style="stroke:#171717;stroke-width:1;"/><polygon fill="none" points="905.61,235.8979,896.4846,252.533,908.2908,254.6812,905.61,235.8979" style="stroke:#171717;stroke-width:1;"/></g><!--reverse link Page to SharedSeo--><g class="link" data-entity-1="ent0003" data-entity-2="ent0006" data-link-type="composition" data-source-line="119" id="lnk25"><path codeLine="119" d="M303.508,518.7991 C304.818,553.0991 311.49,592.0179 339.69,625.0079 C362.75,651.9879 382.8,637.5379 413.69,655.0079 C419.37,658.2179 425.09,661.7379 430.76,665.4279" fill="none" id="Page-backto-SharedSeo" style="stroke:#171717;stroke-width:1;"/><polygon fill="#171717" points="303.05,506.8079,299.2819,512.9562,303.508,518.7991,307.2761,512.6509,303.05,506.8079" style="stroke:#171717;stroke-width:1;"/><text fill="#000000" font-family="Times New Roman" font-size="13" lengthAdjust="spacing" textLength="17.3291" x="340.69" y="622.1446">seo</text></g><!--reverse link HomePage to SharedSeo--><g class="link" data-entity-1="ent0004" data-entity-2="ent0006" data-link-type="composition" data-source-line="120" id="lnk26"><path codeLine="120" d="M447.9913,518.493 C458.6513,557.003 472.5,607.0279 485.68,654.6679" fill="none" id="HomePage-backto-SharedSeo" style="stroke:#171717;stroke-width:1;"/><polygon fill="#171717" points="444.79,506.9279,442.5356,513.7776,447.9913,518.493,450.2457,511.6433,444.79,506.9279" style="stroke:#171717;stroke-width:1;"/><text fill="#000000" font-family="Times New Roman" font-size="13" lengthAdjust="spacing" textLength="17.3291" x="476.96" y="622.1446">seo</text></g><!--reverse link Page to PageBlock--><g class="link" data-entity-1="ent0003" data-entity-2="ent0007" data-link-type="composition" data-source-line="121" id="lnk27"><path codeLine="121" d="M262.5855,515.8231 C216.5055,566.7131 142,649.0079 100.3,695.0679" fill="none" id="Page-backto-PageBlock" style="stroke:#171717;stroke-width:1;"/><polygon fill="#171717" points="270.64,506.9279,263.6477,508.6907,262.5855,515.8231,269.5778,514.0603,270.64,506.9279" style="stroke:#171717;stroke-width:1;"/><text fill="#000000" font-family="Times New Roman" font-size="13" lengthAdjust="spacing" textLength="33.9409" x="176.48" y="622.1446">blocks</text><text fill="#000000" font-family="Times New Roman" font-size="13" lengthAdjust="spacing" textLength="19.5" x="85.2875" y="684.4749">0..*</text></g><!--reverse link HomePage to PageBlock--><g class="link" data-entity-1="ent0004" data-entity-2="ent0007" data-link-type="composition" data-source-line="122" id="lnk28"><path codeLine="122" d="M425.2218,518.7195 C416.6218,554.7195 400.78,596.5979 362.69,625.0079 C289.58,679.5379 243.26,618.4879 159.69,655.0079 C138.18,664.4079 117.56,680.7379 102.02,695.0779" fill="none" id="HomePage-backto-PageBlock" style="stroke:#171717;stroke-width:1;"/><polygon fill="#171717" points="428.01,507.0479,422.7254,511.9543,425.2218,518.7195,430.5064,513.8131,428.01,507.0479" style="stroke:#171717;stroke-width:1;"/><text fill="#000000" font-family="Times New Roman" font-size="13" lengthAdjust="spacing" textLength="33.9409" x="380.47" y="622.1446">blocks</text><text fill="#000000" font-family="Times New Roman" font-size="13" lengthAdjust="spacing" textLength="19.5" x="111.058" y="684.4873">0..*</text></g><!--link Global to UploadFile--><g class="link" data-entity-1="ent0005" data-entity-2="ent0015" data-link-type="dependency" data-source-line="124" id="lnk29"><path codeLine="124" d="M1573.82,546.9879 C1550.77,590.1779 1525.6159,637.3151 1506.1759,673.7251" fill="none" id="Global-to-UploadFile" style="stroke:#171717;stroke-width:1;"/><polygon fill="#171717" points="1503.35,679.0179,1511.1175,672.9626,1505.705,674.6072,1504.0604,669.1947,1503.35,679.0179" style="stroke:#171717;stroke-width:1;"/><text fill="#000000" font-family="Times New Roman" font-size="13" lengthAdjust="spacing" textLength="23.1118" x="1540.11" y="622.1446">logo</text></g><!--link Article to UploadFile--><g class="link" data-entity-1="ent0008" data-entity-2="ent0015" data-link-type="dependency" data-source-line="125" id="lnk30"><path codeLine="125" d="M1303.86,531.0579 C1314.92,546.8479 1327.05,563.7179 1338.69,579.0079 C1354.75,600.1079 1358.63,605.5979 1376.69,625.0079 C1394.54,644.1879 1410.8946,660.2423 1429.0546,677.2823" fill="none" id="Article-to-UploadFile" style="stroke:#171717;stroke-width:1;"/><polygon fill="#171717" points="1433.43,681.3879,1429.6039,672.3126,1429.7838,677.9666,1424.1298,678.1465,1433.43,681.3879" style="stroke:#171717;stroke-width:1;"/><text fill="#000000" font-family="Times New Roman" font-size="13" lengthAdjust="spacing" textLength="28.8691" x="1377.69" y="622.1446">cover</text></g><!--link Project to UploadFile--><g class="link" data-entity-1="ent0010" data-entity-2="ent0015" data-link-type="dependency" data-source-line="126" id="lnk31"><path codeLine="126" d="M1430.26,530.9979 C1441.94,576.4579 1456.1765,631.8467 1466.7265,672.8967" fill="none" id="Project-to-UploadFile" style="stroke:#171717;stroke-width:1;"/><polygon fill="#171717" points="1468.22,678.7079,1469.8539,668.9955,1466.9754,673.8653,1462.1057,670.9868,1468.22,678.7079" style="stroke:#171717;stroke-width:1;"/><text fill="#000000" font-family="Times New Roman" font-size="13" lengthAdjust="spacing" textLength="28.8691" x="1454.01" y="622.1446">cover</text></g><!--link Project to UploadFile--><g class="link" data-entity-1="ent0010" data-entity-2="ent0015" data-link-type="dependency" data-source-line="127" id="lnk32"><path codeLine="127" d="M1408.42,531.0379 C1407.28,560.0479 1408.68,594.9179 1417.69,625.0079 C1423.37,643.9579 1430.4532,657.8146 1441.1532,673.8746" fill="none" id="Project-to-UploadFile-1" style="stroke:#171717;stroke-width:1;"/><polygon fill="#171717" points="1444.48,678.8679,1442.8187,669.1602,1441.7077,674.7068,1436.161,673.5958,1444.48,678.8679" style="stroke:#171717;stroke-width:1;"/><text fill="#000000" font-family="Times New Roman" font-size="13" lengthAdjust="spacing" textLength="23.1118" x="1418.69" y="622.1446">logo</text></g><!--link VacancyApplication to UploadFile--><g class="link" data-entity-1="ent0012" data-entity-2="ent0015" data-link-type="dependency" data-source-line="128" id="lnk33"><path codeLine="128" d="M1949.34,262.8779 C1973.44,290.5779 1997.11,324.1979 2009.69,359.8279 C2042.14,451.6779 2068.83,501.5979 2009.69,579.0079 C1950.13,656.9679 1649.902,702.0901 1532.002,717.1001" fill="none" id="VacancyApplication-to-UploadFile" style="stroke:#171717;stroke-width:1;"/><polygon fill="#171717" points="1526.05,717.8579,1535.4831,720.6892,1531.01,717.2264,1534.4728,712.7533,1526.05,717.8579" style="stroke:#171717;stroke-width:1;"/><text fill="#000000" font-family="Times New Roman" font-size="13" lengthAdjust="spacing" textLength="57.7637" x="2045.74" y="474.5546">resumeFile</text></g><!--link Article to Author--><g class="link" data-entity-1="ent0008" data-entity-2="ent0009" data-link-type="association" data-source-line="130" id="lnk34"><path codeLine="130" d="M1246.16,530.9979 C1232.93,579.5179 1214.79,645.9979 1203.68,686.7379" fill="none" id="Article-Author" style="stroke:#171717;stroke-width:1;"/><text fill="#000000" font-family="Times New Roman" font-size="13" lengthAdjust="spacing" textLength="38.27" x="1225.06" y="622.1446">authors</text><text fill="#000000" font-family="Times New Roman" font-size="13" lengthAdjust="spacing" textLength="19.5" x="1224.34" y="550.6879">0..*</text><text fill="#000000" font-family="Times New Roman" font-size="13" lengthAdjust="spacing" textLength="19.5" x="1184.8216" y="676.4597">0..*</text></g><!--link Vacancy to Industry--><g class="link" data-entity-1="ent0011" data-entity-2="ent0013" data-link-type="dependency" data-source-line="131" id="lnk35"><path codeLine="131" d="M933.65,566.0379 C897.41,608.2879 860.8663,650.8737 833.7963,682.4337" fill="none" id="Vacancy-to-Industry" style="stroke:#171717;stroke-width:1;"/><polygon fill="#171717" points="829.89,686.9879,838.7856,682.7608,833.1452,683.1927,832.7133,677.5524,829.89,686.9879" style="stroke:#171717;stroke-width:1;"/><text fill="#000000" font-family="Times New Roman" font-size="13" lengthAdjust="spacing" textLength="42.6118" x="895.2" y="622.1446">industry</text><text fill="#000000" font-family="Times New Roman" font-size="13" lengthAdjust="spacing" textLength="19.5" x="906.5197" y="572.1985">0..*</text><text fill="#000000" font-family="Times New Roman" font-size="13" lengthAdjust="spacing" textLength="6.5" x="829.4919" y="676.4831">1</text></g><!--link Vacancy to JobRole--><g class="link" data-entity-1="ent0011" data-entity-2="ent0014" data-link-type="dependency" data-source-line="132" id="lnk36"><path codeLine="132" d="M994.22,579.1779 C990.88,594.5979 987.32,610.2379 983.69,625.0079 C978.61,645.6979 973.8335,662.8418 968.3935,681.3318" fill="none" id="Vacancy-to-JobRole" style="stroke:#171717;stroke-width:1;"/><polygon fill="#171717" points="966.7,687.0879,973.0776,679.5828,968.1113,682.2912,965.4029,677.3248,966.7,687.0879" style="stroke:#171717;stroke-width:1;"/><text fill="#000000" font-family="Times New Roman" font-size="13" lengthAdjust="spacing" textLength="20.2109" x="987.68" y="622.1446">role</text><text fill="#000000" font-family="Times New Roman" font-size="13" lengthAdjust="spacing" textLength="19.5" x="973.1562" y="599.1912">0..*</text><text fill="#000000" font-family="Times New Roman" font-size="13" lengthAdjust="spacing" textLength="6.5" x="962.4044" y="676.1922">1</text></g><!--link VacancyApplication to Vacancy--><g class="link" data-entity-1="ent0012" data-entity-2="ent0011" data-link-type="dependency" data-source-line="133" id="lnk37"><path codeLine="133" d="M1797.94,201.6579 C1668.57,221.0979 1398.49,269.4879 1186.69,359.8279 C1156.12,372.8579 1129.8485,387.7947 1102.5185,405.5847" fill="none" id="VacancyApplication-to-Vacancy" style="stroke:#171717;stroke-width:1;"/><polygon fill="#171717" points="1097.49,408.8579,1107.2149,407.3004,1101.6804,406.1302,1102.8506,400.5957,1097.49,408.8579" style="stroke:#171717;stroke-width:1;"/><text fill="#000000" font-family="Times New Roman" font-size="13" lengthAdjust="spacing" textLength="42.5801" x="1295.61" y="326.9646">vacancy</text><text fill="#000000" font-family="Times New Roman" font-size="13" lengthAdjust="spacing" textLength="19.5" x="1770.8384" y="200.2522">0..*</text><text fill="#000000" font-family="Times New Roman" font-size="13" lengthAdjust="spacing" textLength="6.5" x="1105.3308" y="400.81">1</text></g></g></svg>